<?xml version="1.0" encoding="utf-8"?>
<!-- Generator: Adobe Illustrator 23.0.6, SVG Export Plug-In . SVG Version: 6.00 Build 0)  -->
<svg version="1.1" id="Capa_1" xmlns="http://www.w3.org/2000/svg" xmlns:xlink="http://www.w3.org/1999/xlink" x="0px" y="0px"
	 viewBox="0 17.25 585.61 108.9" style="enable-background:new 0 17.25 585.61 108.9;" xml:space="preserve">
<style type="text/css">
	.st0{fill:#7B7B7C;}
	.st1{fill:#003DA6;}
	.st2{fill:#009944;}
</style>
<g>
	<g>
		<path class="st0" d="M267.03,21.65v17.63c0,5.33,2.05,8.02,5.56,8.02c3.66,0,5.65-2.55,5.65-8.02V21.65h6.94v17.23
			c0,9.48-4.8,13.99-12.82,13.99c-7.75,0-12.26-4.33-12.26-14.08V21.65H267.03z"/>
		<path class="st0" d="M295.38,52.37V21.65h8.1l6.39,11.26c1.82,3.23,3.6,7.06,5.02,10.53h0.08c-0.41-4.06-0.53-8.21-0.53-12.86
			v-8.93h6.37v30.72h-7.29l-6.56-11.86c-1.83-3.27-3.87-7.24-5.34-10.84h-0.17c0.22,4.11,0.3,8.43,0.3,13.45v9.25H295.38z"/>
		<path class="st0" d="M337.98,21.65v30.72h-6.92V21.65H337.98z"/>
		<path class="st0" d="M355.42,52.37l-9.82-30.72h7.61l3.74,12.98c1.05,3.69,2.01,7.16,2.73,10.99h0.14
			c0.76-3.69,1.72-7.34,2.78-10.85l3.92-13.12h7.38l-10.36,30.72H355.42z"/>
		<path class="st0" d="M399.64,39.37h-11.31v7.29h12.61v5.7H381.4V21.65h18.9v5.7h-11.99v6.38h11.31L399.64,39.37L399.64,39.37z"/>
		<path class="st0" d="M409.88,22.06c2.23-0.37,5.52-0.63,9.25-0.63c4.56,0,7.76,0.67,9.94,2.41c1.87,1.46,2.88,3.65,2.88,6.47
			c0,3.88-2.79,6.56-5.43,7.51v0.15c2.14,0.86,3.33,2.87,4.09,5.7c0.96,3.5,1.87,7.52,2.47,8.7h-7.11c-0.44-0.91-1.24-3.38-2.1-7.16
			c-0.85-3.87-2.17-4.87-5.05-4.92h-2.05v12.08h-6.89V22.06L409.88,22.06z M416.77,35.27h2.72c3.46,0,5.53-1.73,5.53-4.42
			c0-2.78-1.92-4.24-5.12-4.24c-1.67,0-2.64,0.09-3.13,0.23V35.27z"/>
		<path class="st0" d="M441.34,45.21c1.82,0.96,4.72,1.91,7.68,1.91c3.2,0,4.88-1.32,4.88-3.32c0-1.92-1.45-3.02-5.15-4.29
			c-5.1-1.82-8.47-4.65-8.47-9.11c0-5.25,4.42-9.2,11.63-9.2c3.5,0,6,0.68,7.82,1.54l-1.54,5.56c-1.19-0.59-3.43-1.45-6.38-1.45
			c-3.02,0-4.48,1.41-4.48,2.97c0,1.96,1.7,2.82,5.71,4.33c5.43,2,7.93,4.83,7.93,9.16c0,5.14-3.92,9.52-12.36,9.52
			c-3.5,0-6.98-0.96-8.7-1.91L441.34,45.21z"/>
		<path class="st0" d="M476.86,21.65v30.72h-6.92V21.65H476.86z"/>
		<path class="st0" d="M487.07,22.1c2.55-0.41,5.9-0.67,9.35-0.67c5.88,0,9.7,1.09,12.62,3.27c3.19,2.36,5.19,6.15,5.19,11.58
			c0,5.88-2.13,9.93-5.07,12.45c-3.22,2.69-8.2,3.96-14.21,3.96c-3.61,0-6.19-0.23-7.89-0.46V22.1L487.07,22.1z M494,47.12
			c0.59,0.14,1.6,0.14,2.42,0.14c6.34,0.04,10.49-3.43,10.49-10.76c0-6.38-3.73-9.76-9.76-9.76c-1.49,0-2.55,0.14-3.14,0.27
			L494,47.12L494,47.12z"/>
		<path class="st0" d="M529.4,44.48l-2.19,7.88h-7.16l9.35-30.72h9.13l9.56,30.72h-7.51l-2.38-7.88H529.4z M537.2,39.28l-1.92-6.52
			c-0.54-1.83-1.09-4.1-1.55-5.93h-0.08c-0.46,1.82-0.92,4.15-1.43,5.93l-1.81,6.52H537.2z"/>
		<path class="st0" d="M556.35,22.1c2.54-0.41,5.86-0.67,9.33-0.67c5.89,0,9.7,1.09,12.63,3.27c3.18,2.36,5.2,6.15,5.2,11.58
			c0,5.88-2.16,9.93-5.07,12.45c-3.24,2.69-8.2,3.96-14.22,3.96c-3.6,0-6.2-0.23-7.87-0.46V22.1L556.35,22.1z M563.26,47.12
			c0.6,0.14,1.6,0.14,2.42,0.14c6.33,0.04,10.47-3.43,10.47-10.76c0-6.38-3.71-9.76-9.74-9.76c-1.51,0-2.55,0.14-3.15,0.27
			L563.26,47.12L563.26,47.12z"/>
		<path class="st0" d="M267.25,82.61l-2.18,7.88h-7.15l9.33-30.71h9.13l9.56,30.71h-7.5l-2.38-7.88H267.25z M275.04,77.41l-1.9-6.51
			c-0.56-1.82-1.1-4.11-1.56-5.93h-0.09c-0.46,1.82-0.91,4.15-1.42,5.93l-1.82,6.51H275.04z"/>
		<path class="st0" d="M318.17,89.67c-1.24,0.59-4.17,1.32-7.85,1.32c-10.62,0-16.08-6.66-16.08-15.4
			c0-10.48,7.47-16.27,16.76-16.27c3.6,0,6.34,0.69,7.57,1.37l-1.47,5.47c-1.35-0.59-3.3-1.14-5.83-1.14
			c-5.46,0-9.74,3.33-9.74,10.17c0,6.15,3.64,10.03,9.79,10.03c2.13,0,4.42-0.42,5.83-1.01L318.17,89.67z"/>
		<path class="st0" d="M329.55,60.18c2.24-0.36,5.52-0.63,9.27-0.63c4.54,0,7.75,0.69,9.93,2.41c1.86,1.47,2.88,3.65,2.88,6.47
			c0,3.88-2.77,6.56-5.43,7.52v0.13c2.16,0.87,3.33,2.88,4.12,5.71c0.94,3.5,1.86,7.51,2.45,8.7h-7.11
			c-0.45-0.92-1.23-3.38-2.11-7.15c-0.87-3.88-2.19-4.88-5.06-4.93h-2.03v12.08h-6.9L329.55,60.18L329.55,60.18z M336.45,73.4h2.7
			c3.48,0,5.52-1.73,5.52-4.42c0-2.78-1.91-4.23-5.1-4.23c-1.68,0-2.64,0.08-3.12,0.22V73.4L336.45,73.4z"/>
		<path class="st0" d="M381.62,77.51h-11.29v7.29h12.62v5.7H363.4V59.78h18.92v5.7h-11.98v6.37h11.29V77.51L381.62,77.51z"/>
		<path class="st0" d="M394.49,60.23c2.54-0.41,5.88-0.69,9.33-0.69c5.9,0,9.71,1.09,12.63,3.28c3.19,2.36,5.19,6.15,5.19,11.57
			c0,5.87-2.14,9.93-5.07,12.44c-3.23,2.69-8.19,3.97-14.21,3.97c-3.61,0-6.2-0.23-7.88-0.46V60.23L394.49,60.23z M401.39,85.25
			c0.61,0.14,1.61,0.14,2.42,0.14c6.35,0.05,10.48-3.42,10.48-10.75c0-6.38-3.71-9.76-9.74-9.76c-1.49,0-2.55,0.14-3.16,0.27V85.25z
			"/>
		<path class="st0" d="M439.96,59.78v30.71h-6.94V59.78H439.96z"/>
		<path class="st0" d="M458.73,65.61h-8.3v-5.83h23.61v5.83h-8.38v24.88h-6.94L458.73,65.61L458.73,65.61z"/>
		<path class="st0" d="M488.41,82.61l-2.21,7.88h-7.15l9.35-30.71h9.09l9.58,30.71h-7.52l-2.38-7.88H488.41z M496.17,77.41
			l-1.9-6.51c-0.54-1.82-1.09-4.11-1.54-5.93h-0.09c-0.45,1.82-0.9,4.15-1.41,5.93l-1.83,6.51H496.17z"/>
		<path class="st0" d="M517.92,60.23c2.55-0.41,5.88-0.69,9.34-0.69c5.89,0,9.71,1.09,12.64,3.28c3.17,2.36,5.17,6.15,5.17,11.57
			c0,5.87-2.13,9.93-5.04,12.44c-3.24,2.69-8.2,3.97-14.22,3.97c-3.6,0-6.2-0.23-7.89-0.46V60.23L517.92,60.23z M524.85,85.25
			c0.59,0.14,1.61,0.14,2.41,0.14c6.32,0.05,10.48-3.42,10.48-10.75c0-6.38-3.74-9.76-9.74-9.76c-1.51,0-2.56,0.14-3.15,0.27V85.25z
			"/>
		<path class="st0" d="M562.85,82.61l-2.19,7.88h-7.15l9.35-30.71h9.13l9.56,30.71h-7.52l-2.38-7.88H562.85z M570.66,77.41
			l-1.92-6.51c-0.55-1.82-1.09-4.11-1.54-5.93h-0.1c-0.45,1.82-0.91,4.15-1.41,5.93l-1.8,6.51H570.66z"/>
	</g>
	<g>
		<path class="st0" d="M258.65,99.49c0.76-0.11,1.68-0.19,2.67-0.19c1.69,0,2.86,0.35,3.69,1.06c0.9,0.71,1.44,1.81,1.44,3.35
			c0,1.64-0.56,2.84-1.42,3.63c-0.9,0.83-2.35,1.25-4.12,1.25c-0.96,0-1.69-0.06-2.25-0.12L258.65,99.49L258.65,99.49z
			 M260.32,107.23c0.22,0.04,0.58,0.04,0.91,0.04c2.15,0.01,3.45-1.19,3.45-3.51c0-1.99-1.14-3.16-3.24-3.16
			c-0.52,0-0.89,0.04-1.13,0.1L260.32,107.23L260.32,107.23z"/>
		<path class="st0" d="M275.33,104.44h-3.44v2.69h3.85v1.36h-5.51v-9.11h5.31v1.36h-3.65v2.36h3.44V104.44z"/>
		<path class="st0" d="M279.52,106.68c0.52,0.31,1.35,0.57,2.2,0.57c1.05,0,1.63-0.5,1.63-1.24c0-0.69-0.45-1.1-1.59-1.51
			c-1.54-0.55-2.49-1.34-2.49-2.65c0-1.51,1.24-2.62,3.24-2.62c0.98,0,1.71,0.21,2.18,0.45l-0.39,1.34
			c-0.35-0.18-0.98-0.43-1.83-0.43c-1.04,0-1.49,0.55-1.49,1.09c0,0.7,0.51,1.03,1.74,1.51c1.58,0.59,2.34,1.39,2.34,2.69
			c0,1.48-1.11,2.75-3.45,2.75c-0.98,0-1.99-0.27-2.47-0.58L279.52,106.68z"/>
		<path class="st0" d="M288.91,99.49c0.74-0.11,1.66-0.19,2.64-0.19c1.71,0,2.87,0.35,3.71,1.06c0.88,0.71,1.44,1.81,1.44,3.35
			c0,1.64-0.56,2.84-1.43,3.63c-0.9,0.83-2.35,1.25-4.13,1.25c-0.95,0-1.69-0.06-2.23-0.12V99.49z M290.58,107.23
			c0.23,0.04,0.57,0.04,0.91,0.04c2.17,0.01,3.45-1.19,3.45-3.51c0.02-1.99-1.15-3.16-3.23-3.16c-0.53,0-0.88,0.04-1.12,0.1V107.23z
			"/>
		<path class="st0" d="M305.58,104.44h-3.42v2.69h3.83v1.36h-5.5v-9.11h5.31v1.36h-3.64v2.36h3.42V104.44z"/>
		<path class="st0" d="M322.63,104.76c-0.04-1.16-0.11-2.59-0.1-3.83h-0.04c-0.3,1.1-0.68,2.33-1.1,3.48l-1.33,3.96h-1.27l-1.22-3.9
			c-0.34-1.17-0.68-2.41-0.94-3.55h-0.02c-0.03,1.19-0.08,2.64-0.16,3.89l-0.19,3.66h-1.56l0.62-9.11h2.18l1.21,3.66
			c0.32,1.07,0.6,2.15,0.82,3.17h0.06c0.23-0.98,0.55-2.11,0.88-3.18l1.28-3.65h2.17l0.52,9.11h-1.63L322.63,104.76z"/>
		<path class="st0" d="M330.22,105.9l-0.8,2.59h-1.71l2.92-9.11h2.11l2.98,9.11h-1.8l-0.83-2.59H330.22z M332.82,104.65l-0.71-2.25
			c-0.19-0.55-0.32-1.18-0.46-1.7h-0.02c-0.15,0.53-0.3,1.16-0.44,1.7l-0.7,2.25H332.82z"/>
		<path class="st0" d="M339.34,99.51c0.64-0.13,1.55-0.21,2.51-0.21c1.31,0,2.18,0.21,2.81,0.73c0.5,0.42,0.81,1.06,0.81,1.85
			c0,1.16-0.82,1.97-1.69,2.27v0.03c0.67,0.24,1.06,0.89,1.28,1.76c0.3,1.13,0.54,2.2,0.71,2.54h-1.69
			c-0.14-0.27-0.36-1.01-0.62-2.15c-0.25-1.2-0.68-1.57-1.61-1.6H341v3.74h-1.65L339.34,99.51L339.34,99.51z M340.99,103.52h0.97
			c1.13,0,1.81-0.59,1.81-1.51c0-0.99-0.68-1.45-1.78-1.45c-0.52,0-0.86,0.04-1.01,0.08L340.99,103.52L340.99,103.52z"/>
		<path class="st0" d="M348.77,107.57l4.65-6.78v-0.04h-4.24v-1.38h6.41v0.97l-4.59,6.73v0.03h4.67v1.38h-6.89L348.77,107.57
			L348.77,107.57z"/>
		<path class="st0" d="M367.16,103.84c0,3.06-1.85,4.8-4.35,4.8c-2.59,0-4.21-1.97-4.21-4.64c0-2.81,1.78-4.79,4.35-4.79
			C365.6,99.2,367.16,101.22,367.16,103.84z M360.36,103.95c0,1.87,0.94,3.34,2.52,3.34c1.61,0,2.53-1.49,2.53-3.41
			c0-1.72-0.87-3.35-2.53-3.35C361.25,100.54,360.36,102.07,360.36,103.95z"/>
		<path class="st0" d="M375.71,108.49v-1l1.03-0.97c2.06-1.92,3.03-2.97,3.05-4.14c0-0.79-0.41-1.47-1.55-1.47
			c-0.8,0-1.44,0.38-1.89,0.73l-0.49-1.18c0.64-0.52,1.6-0.9,2.72-0.9c1.95,0,2.9,1.22,2.9,2.66c0,1.54-1.13,2.79-2.67,4.21
			l-0.75,0.66v0.03h3.59v1.38L375.71,108.49L375.71,108.49z"/>
		<path class="st0" d="M391.51,104.03c0,2.83-1.11,4.61-3.22,4.61c-2.01,0-3.1-1.84-3.11-4.52c0-2.75,1.17-4.57,3.22-4.57
			C390.53,99.55,391.51,101.44,391.51,104.03z M386.85,104.1c0,2.15,0.58,3.26,1.48,3.26c1,0,1.51-1.18,1.51-3.3
			c0-2.05-0.48-3.25-1.49-3.25C387.47,100.82,386.85,101.91,386.85,104.1z"/>
		<path class="st0" d="M397.5,101.2h-0.03l-1.6,0.81l-0.29-1.26l2.17-1.06h1.38v8.79h-1.62V101.2z"/>
		<path class="st0" d="M405.15,107.3c0.28,0.03,0.52,0.02,0.91-0.03c0.67-0.05,1.3-0.28,1.79-0.68c0.58-0.45,0.97-1.12,1.13-1.96
			h-0.02c-0.45,0.49-1.07,0.77-1.92,0.77c-1.53,0-2.66-1.09-2.66-2.72c0-1.69,1.29-3.14,3.16-3.14c2.06,0,3.14,1.59,3.14,3.74
			c0,1.87-0.61,3.22-1.52,4.11c-0.77,0.7-1.83,1.11-3.02,1.2c-0.37,0.04-0.74,0.04-1,0.03L405.15,107.3L405.15,107.3L405.15,107.3z
			 M406.03,102.59c0,0.9,0.54,1.6,1.45,1.6c0.68,0,1.16-0.31,1.42-0.73c0.06-0.12,0.08-0.25,0.08-0.48c0-1.19-0.44-2.21-1.53-2.21
			C406.61,100.77,406.03,101.52,406.03,102.59z"/>
		<path class="st0" d="M418.76,109.01l3.29-9.81h1.16l-3.3,9.81H418.76z"/>
		<path class="st0" d="M433.29,99.36v3.65h3.87v-3.65h1.67v9.12h-1.67v-4.02h-3.87v4.02h-1.65v-9.12H433.29z"/>
		<path class="st0" d="M444.89,105.9l-0.77,2.59h-1.72l2.92-9.11h2.13l2.95,9.11h-1.81l-0.81-2.59H444.89z M447.51,104.65
			l-0.72-2.25c-0.18-0.55-0.33-1.18-0.46-1.7h-0.04c-0.12,0.53-0.27,1.16-0.44,1.7l-0.7,2.25H447.51z"/>
		<path class="st0" d="M453.98,106.68c0.54,0.31,1.37,0.57,2.21,0.57c1.06,0,1.65-0.5,1.65-1.24c0-0.69-0.46-1.1-1.61-1.51
			c-1.51-0.55-2.48-1.34-2.48-2.65c0-1.51,1.23-2.62,3.24-2.62c0.99,0,1.7,0.21,2.17,0.45l-0.4,1.34c-0.34-0.18-0.97-0.43-1.82-0.43
			c-1.06,0-1.51,0.55-1.51,1.09c0,0.7,0.54,1.03,1.75,1.51c1.58,0.59,2.35,1.39,2.35,2.69c0,1.48-1.1,2.75-3.45,2.75
			c-0.98,0-1.98-0.27-2.49-0.58L453.98,106.68z"/>
		<path class="st0" d="M465.12,100.76h-2.59v-1.39h6.89v1.39h-2.61v7.72h-1.69V100.76z"/>
		<path class="st0" d="M473.67,105.9l-0.79,2.59h-1.72l2.94-9.11h2.13l2.96,9.11h-1.8l-0.83-2.59H473.67z M476.29,104.65l-0.73-2.25
			c-0.16-0.55-0.31-1.18-0.46-1.7h-0.03c-0.14,0.53-0.27,1.16-0.43,1.7l-0.7,2.25H476.29z"/>
		<path class="st0" d="M495.62,104.76c-0.05-1.16-0.11-2.59-0.1-3.83h-0.05c-0.29,1.1-0.66,2.33-1.07,3.48l-1.34,3.96h-1.27
			l-1.21-3.9c-0.36-1.17-0.68-2.41-0.92-3.55h-0.03c-0.04,1.19-0.11,2.64-0.17,3.89l-0.2,3.66h-1.56l0.61-9.11h2.19l1.18,3.66
			c0.34,1.07,0.62,2.15,0.87,3.17h0.03c0.24-0.98,0.55-2.11,0.9-3.18l1.25-3.65h2.16l0.54,9.11h-1.62L495.62,104.76z"/>
		<path class="st0" d="M503.21,105.9l-0.79,2.59h-1.7l2.93-9.11h2.11l2.96,9.11h-1.79l-0.83-2.59H503.21z M505.81,104.65l-0.71-2.25
			c-0.17-0.55-0.33-1.18-0.46-1.7h-0.03c-0.14,0.53-0.28,1.16-0.44,1.7l-0.69,2.25H505.81z"/>
		<path class="st0" d="M512.32,99.51c0.63-0.13,1.55-0.21,2.53-0.21c1.31,0,2.18,0.21,2.81,0.73c0.5,0.42,0.79,1.06,0.79,1.85
			c0,1.16-0.82,1.97-1.68,2.27v0.03c0.66,0.24,1.07,0.89,1.27,1.76c0.32,1.13,0.55,2.2,0.72,2.54h-1.7
			c-0.13-0.27-0.37-1.01-0.61-2.15c-0.27-1.2-0.69-1.57-1.65-1.6h-0.85v3.74h-1.64V99.51L512.32,99.51z M513.96,103.52h1.02
			c1.11,0,1.79-0.59,1.79-1.51c0-0.99-0.68-1.45-1.76-1.45c-0.52,0-0.87,0.04-1.05,0.08L513.96,103.52L513.96,103.52z"/>
		<path class="st0" d="M521.75,107.57l4.65-6.78v-0.04h-4.23v-1.38h6.42v0.97l-4.6,6.73v0.03h4.67v1.38h-6.89V107.57L521.75,107.57z
			"/>
		<path class="st0" d="M540.15,103.84c0,3.06-1.85,4.8-4.35,4.8c-2.59,0-4.23-1.97-4.23-4.64c0-2.81,1.79-4.79,4.35-4.79
			C538.59,99.2,540.15,101.22,540.15,103.84z M533.35,103.95c0,1.87,0.92,3.34,2.53,3.34c1.62,0,2.52-1.49,2.52-3.41
			c0-1.72-0.85-3.35-2.52-3.35C534.23,100.54,533.35,102.07,533.35,103.95z"/>
		<path class="st0" d="M548.69,108.49v-1l1.04-0.97c2.07-1.92,3.06-2.97,3.07-4.14c0-0.79-0.42-1.47-1.58-1.47
			c-0.76,0-1.43,0.38-1.88,0.73l-0.48-1.18c0.65-0.52,1.6-0.9,2.71-0.9c1.94,0,2.9,1.22,2.9,2.66c0,1.54-1.11,2.79-2.66,4.21
			l-0.76,0.66v0.03h3.59v1.38L548.69,108.49L548.69,108.49z"/>
		<path class="st0" d="M564.5,104.03c0,2.83-1.11,4.61-3.23,4.61c-2,0-3.09-1.84-3.09-4.52c0-2.75,1.15-4.57,3.2-4.57
			C563.52,99.55,564.5,101.44,564.5,104.03z M559.84,104.1c0,2.15,0.59,3.26,1.48,3.26c1,0,1.5-1.18,1.5-3.3
			c0-2.05-0.48-3.25-1.47-3.25C560.47,100.82,559.84,101.91,559.84,104.1z"/>
		<path class="st0" d="M567.87,108.49v-1l1.05-0.97c2.07-1.92,3.06-2.97,3.06-4.14c0-0.79-0.42-1.47-1.58-1.47
			c-0.77,0-1.44,0.38-1.88,0.73l-0.49-1.18c0.65-0.52,1.59-0.9,2.71-0.9c1.94,0,2.9,1.22,2.9,2.66c0,1.54-1.11,2.79-2.65,4.21
			l-0.76,0.66v0.03h3.6v1.38L567.87,108.49L567.87,108.49z"/>
		<path class="st0" d="M577.82,106.77c0.33,0.21,1.15,0.54,2,0.54c1.27,0,1.76-0.72,1.76-1.41c0-1.03-0.98-1.48-2-1.48h-0.75v-1.22
			h0.75c0.75,0,1.73-0.35,1.73-1.22c0-0.61-0.44-1.11-1.41-1.11c-0.71,0-1.43,0.32-1.79,0.56l-0.38-1.2
			c0.48-0.34,1.48-0.67,2.52-0.67c1.84,0,2.75,1,2.75,2.15c0,0.92-0.54,1.67-1.62,2.05v0.03c1.06,0.2,1.92,1.01,1.92,2.19
			c0,1.49-1.22,2.66-3.41,2.66c-1.06,0-2-0.29-2.46-0.61L577.82,106.77z"/>
		<path class="st0" d="M265.96,122.48c-0.59,0.22-1.73,0.52-2.92,0.52c-1.56,0-2.71-0.4-3.58-1.21c-0.82-0.77-1.28-1.99-1.28-3.36
			c0.02-2.9,2.08-4.74,5.08-4.74c1.12,0,1.99,0.23,2.42,0.43l-0.37,1.34c-0.51-0.24-1.11-0.39-2.07-0.39
			c-1.95,0-3.32,1.15-3.32,3.27c0,2.07,1.28,3.31,3.18,3.31c0.61,0,1.03-0.08,1.25-0.18v-2.28h-1.61v-1.31h3.23L265.96,122.48
			L265.96,122.48z"/>
		<path class="st0" d="M273.12,118.86h-3.44v2.68h3.84v1.36h-5.5v-9.11h5.3v1.36h-3.64v2.35h3.44V118.86z M272.88,111.67l-1.68,1.62
			h-1.34l1.18-1.62H272.88z"/>
		<path class="st0" d="M275.31,121.09c0.53,0.31,1.35,0.58,2.21,0.58c1.05,0,1.65-0.5,1.65-1.24c0-0.69-0.46-1.1-1.62-1.51
			c-1.51-0.55-2.45-1.34-2.45-2.65c0-1.51,1.21-2.62,3.21-2.62c0.99,0,1.71,0.22,2.18,0.46l-0.38,1.34
			c-0.34-0.17-0.97-0.44-1.83-0.44c-1.04,0-1.51,0.57-1.51,1.11c0,0.69,0.54,1.01,1.77,1.49c1.58,0.6,2.33,1.39,2.33,2.71
			c0,1.48-1.11,2.74-3.46,2.74c-0.98,0-1.97-0.27-2.47-0.58L275.31,121.09z"/>
		<path class="st0" d="M284.44,115.18h-2.59v-1.39h6.88v1.39h-2.63v7.72h-1.67V115.18z"/>
		<path class="st0" d="M291.84,113.79v9.11h-1.69v-9.11H291.84z"/>
		<path class="st0" d="M302.18,118.25c0,3.07-1.86,4.8-4.36,4.8c-2.57,0-4.21-1.97-4.21-4.63c0-2.82,1.79-4.79,4.35-4.79
			C300.6,113.62,302.18,115.63,302.18,118.25z M295.36,118.37c0,1.86,0.95,3.35,2.54,3.35c1.6,0,2.52-1.5,2.52-3.41
			c0-1.72-0.87-3.34-2.52-3.34C296.25,114.96,295.36,116.5,295.36,118.37z"/>
		<path class="st0" d="M303.95,122.9v-9.11h1.9l2.35,3.91c0.6,1.02,1.13,2.07,1.56,3.05h0.02c-0.11-1.21-0.14-2.39-0.14-3.78v-3.18
			h1.54v9.11h-1.74l-2.38-4.02c-0.58-1-1.17-2.11-1.62-3.14l-0.05,0.01c0.06,1.17,0.08,2.38,0.08,3.89v3.25L303.95,122.9
			L303.95,122.9L303.95,122.9z"/>
		<path class="st0" d="M318.28,113.79v9.11h-1.68v-9.11H318.28z"/>
		<path class="st0" d="M320.54,122.9v-9.11h1.9l2.34,3.91c0.61,1.02,1.14,2.07,1.58,3.05h0.02c-0.12-1.21-0.15-2.39-0.15-3.78v-3.18
			h1.56v9.11h-1.74l-2.39-4.02c-0.58-1-1.17-2.11-1.62-3.14l-0.05,0.01c0.06,1.17,0.08,2.38,0.08,3.89v3.25L320.54,122.9
			L320.54,122.9L320.54,122.9z"/>
		<path class="st0" d="M330,121.09c0.53,0.31,1.35,0.58,2.21,0.58c1.05,0,1.65-0.5,1.65-1.24c0-0.69-0.46-1.1-1.61-1.51
			c-1.51-0.55-2.48-1.34-2.48-2.65c0-1.51,1.24-2.62,3.23-2.62c1,0,1.71,0.22,2.18,0.46l-0.39,1.34c-0.34-0.17-0.98-0.44-1.82-0.44
			c-1.07,0-1.52,0.57-1.52,1.11c0,0.69,0.53,1.01,1.75,1.49c1.58,0.6,2.36,1.39,2.36,2.71c0,1.48-1.12,2.74-3.46,2.74
			c-0.97,0-1.97-0.27-2.48-0.58L330,121.09z"/>
		<path class="st0" d="M339.16,115.18h-2.59v-1.39h6.88v1.39h-2.61v7.72h-1.67V115.18z"/>
		<path class="st0" d="M346.53,113.79v9.11h-1.67v-9.11H346.53z"/>
		<path class="st0" d="M350.54,115.18h-2.59v-1.39h6.87v1.39h-2.62v7.72h-1.66V115.18z"/>
		<path class="st0" d="M357.9,113.79v5.32c0,1.78,0.75,2.6,1.88,2.6c1.18,0,1.89-0.82,1.89-2.6v-5.32h1.69v5.2
			c0,2.82-1.44,4.06-3.64,4.06c-2.12,0-3.48-1.17-3.48-4.04v-5.22H357.9z"/>
		<path class="st0" d="M372.14,122.64c-0.38,0.19-1.25,0.41-2.35,0.41c-2.9,0-4.65-1.81-4.65-4.6c0-3.01,2.08-4.81,4.89-4.81
			c1.09,0,1.85,0.23,2.19,0.4l-0.35,1.33c-0.44-0.19-1.04-0.35-1.79-0.35c-1.85,0-3.19,1.16-3.19,3.35c0,2.02,1.16,3.29,3.19,3.29
			c0.65,0,1.36-0.14,1.8-0.32L372.14,122.64z"/>
		<path class="st0" d="M375.59,113.79v9.11h-1.67v-9.11H375.59z"/>
		<path class="st0" d="M385.92,118.25c0,3.07-1.85,4.8-4.35,4.8c-2.59,0-4.21-1.97-4.21-4.63c0-2.82,1.78-4.79,4.33-4.79
			C384.36,113.62,385.92,115.63,385.92,118.25z M379.13,118.37c0,1.86,0.92,3.35,2.52,3.35c1.62,0,2.52-1.5,2.52-3.41
			c0-1.72-0.85-3.34-2.52-3.34C380,114.96,379.13,116.5,379.13,118.37z"/>
		<path class="st0" d="M387.71,122.9v-9.11h1.9l2.36,3.91c0.59,1.02,1.13,2.07,1.54,3.05h0.03c-0.12-1.21-0.14-2.39-0.14-3.78v-3.18
			h1.55v9.11h-1.75l-2.38-4.02c-0.59-1-1.18-2.11-1.63-3.14l-0.05,0.01c0.06,1.17,0.1,2.38,0.1,3.89v3.25L387.71,122.9L387.71,122.9
			L387.71,122.9z"/>
		<path class="st0" d="M399.03,120.32l-0.78,2.58h-1.73l2.94-9.11h2.13l2.97,9.11h-1.81l-0.82-2.58H399.03z M401.66,119.06
			l-0.73-2.24c-0.16-0.55-0.31-1.18-0.46-1.71h-0.02c-0.14,0.53-0.27,1.16-0.43,1.71l-0.71,2.24L401.66,119.06L401.66,119.06z"/>
		<path class="st0" d="M406.18,113.79h1.65v7.72h3.75v1.39h-5.41V113.79z"/>
		<path class="st0" d="M417.84,122.9v-3.8l-2.89-5.32h1.91l1.09,2.34c0.31,0.68,0.53,1.2,0.78,1.81h0.03
			c0.23-0.58,0.49-1.16,0.79-1.81l1.11-2.34h1.88l-3.04,5.27v3.84L417.84,122.9L417.84,122.9z"/>
		<path class="st0" d="M427.05,113.91c0.75-0.11,1.65-0.19,2.66-0.19c1.7,0,2.87,0.35,3.71,1.05c0.89,0.72,1.44,1.81,1.44,3.36
			c0,1.63-0.56,2.84-1.43,3.63c-0.91,0.82-2.36,1.25-4.13,1.25c-0.95,0-1.69-0.06-2.25-0.13V113.91L427.05,113.91z M428.71,121.65
			c0.24,0.04,0.59,0.04,0.93,0.04c2.17,0.01,3.46-1.19,3.46-3.5c0.01-2.01-1.15-3.17-3.24-3.17c-0.53,0-0.89,0.05-1.15,0.1V121.65
			L428.71,121.65z"/>
		<path class="st0" d="M444.75,118.25c0,3.07-1.86,4.8-4.36,4.8c-2.59,0-4.21-1.97-4.21-4.63c0-2.82,1.79-4.79,4.34-4.79
			C443.17,113.62,444.75,115.63,444.75,118.25z M437.93,118.37c0,1.86,0.95,3.35,2.54,3.35c1.6,0,2.52-1.5,2.52-3.41
			c0-1.72-0.87-3.34-2.52-3.34C438.82,114.96,437.93,116.5,437.93,118.37z"/>
		<path class="st0" d="M453.06,122.64c-0.39,0.19-1.25,0.41-2.38,0.41c-2.89,0-4.64-1.81-4.64-4.6c0-3.01,2.1-4.81,4.88-4.81
			c1.09,0,1.87,0.23,2.21,0.4l-0.35,1.33c-0.44-0.19-1.04-0.35-1.78-0.35c-1.85,0-3.2,1.16-3.2,3.35c0,2.02,1.17,3.29,3.19,3.29
			c0.66,0,1.36-0.14,1.81-0.32L453.06,122.64z"/>
		<path class="st0" d="M459.93,118.86h-3.45v2.68h3.85v1.36h-5.5v-9.11h5.31v1.36h-3.66v2.35h3.45L459.93,118.86L459.93,118.86z"/>
		<path class="st0" d="M462.14,122.9v-9.11h1.9l2.35,3.91c0.59,1.02,1.15,2.07,1.56,3.05h0.02c-0.11-1.21-0.14-2.39-0.14-3.78v-3.18
			h1.53v9.11h-1.73l-2.37-4.02c-0.59-1-1.2-2.11-1.64-3.14l-0.06,0.01c0.07,1.17,0.1,2.38,0.1,3.89v3.25L462.14,122.9L462.14,122.9
			L462.14,122.9z"/>
		<path class="st0" d="M478.19,122.64c-0.4,0.19-1.26,0.41-2.37,0.41c-2.9,0-4.68-1.81-4.68-4.6c0-3.01,2.11-4.81,4.89-4.81
			c1.1,0,1.86,0.23,2.21,0.4l-0.35,1.33c-0.44-0.19-1.05-0.35-1.8-0.35c-1.84,0-3.19,1.16-3.19,3.35c0,2.02,1.17,3.29,3.17,3.29
			c0.66,0,1.36-0.14,1.81-0.32L478.19,122.64z"/>
		<path class="st0" d="M481.62,113.79v9.11h-1.67v-9.11H481.62z"/>
		<path class="st0" d="M485.7,120.32l-0.78,2.58h-1.72l2.92-9.11h2.13l2.96,9.11h-1.8l-0.84-2.58H485.7z M488.33,119.06l-0.73-2.24
			c-0.17-0.55-0.31-1.18-0.46-1.71h-0.04c-0.11,0.53-0.27,1.16-0.43,1.71l-0.69,2.24H488.33z"/>
		<path class="st0" d="M495.99,113.91c0.75-0.11,1.65-0.19,2.65-0.19c1.7,0,2.87,0.35,3.69,1.05c0.91,0.72,1.45,1.81,1.45,3.36
			c0,1.63-0.55,2.84-1.43,3.63c-0.9,0.82-2.35,1.25-4.11,1.25c-0.96,0-1.7-0.06-2.26-0.13L495.99,113.91L495.99,113.91z
			 M497.64,121.65c0.24,0.04,0.6,0.04,0.92,0.04c2.16,0.01,3.47-1.19,3.47-3.5c0.01-2.01-1.16-3.17-3.23-3.17
			c-0.53,0-0.9,0.05-1.16,0.1L497.64,121.65L497.64,121.65z"/>
		<path class="st0" d="M510.71,118.86h-3.46v2.68h3.84v1.36h-5.5v-9.11h5.29v1.36h-3.64v2.35h3.46L510.71,118.86L510.71,118.86z"/>
		<path class="st0" d="M516.06,113.91c0.61-0.11,1.43-0.19,2.54-0.19c1.23,0,2.11,0.26,2.68,0.74c0.55,0.45,0.91,1.17,0.91,2.03
			c0,0.86-0.29,1.56-0.79,2.06c-0.66,0.66-1.71,0.98-2.87,0.98c-0.32,0-0.58-0.02-0.82-0.07v3.45h-1.65L516.06,113.91L516.06,113.91
			z M517.71,118.14c0.22,0.07,0.47,0.08,0.82,0.08c1.25,0,2-0.63,2-1.68c0-1.01-0.7-1.54-1.85-1.54c-0.47,0-0.78,0.05-0.96,0.09
			L517.71,118.14L517.71,118.14z"/>
		<path class="st0" d="M523.98,113.92c0.64-0.13,1.57-0.21,2.52-0.21c1.3,0,2.2,0.22,2.8,0.73c0.52,0.42,0.79,1.06,0.79,1.84
			c0,1.18-0.8,1.97-1.66,2.27v0.04c0.66,0.25,1.05,0.88,1.26,1.76c0.32,1.14,0.55,2.2,0.74,2.55h-1.72
			c-0.13-0.27-0.37-1.01-0.6-2.15c-0.29-1.19-0.7-1.57-1.65-1.59h-0.84v3.75h-1.65L523.98,113.92L523.98,113.92z M525.62,117.94
			h0.98c1.13,0,1.82-0.59,1.82-1.5c0-0.99-0.69-1.46-1.77-1.46c-0.52,0-0.87,0.04-1.03,0.09L525.62,117.94L525.62,117.94z"/>
		<path class="st0" d="M537.13,118.86h-3.44v2.68h3.85v1.36h-5.52v-9.11h5.31v1.36h-3.64v2.35h3.44V118.86z"/>
		<path class="st0" d="M546.65,122.48c-0.59,0.22-1.73,0.52-2.92,0.52c-1.55,0-2.73-0.4-3.6-1.21c-0.8-0.77-1.28-1.99-1.28-3.36
			c0.01-2.9,2.07-4.74,5.07-4.74c1.13,0,2,0.23,2.43,0.43l-0.37,1.34c-0.49-0.24-1.1-0.39-2.07-0.39c-1.94,0-3.31,1.15-3.31,3.27
			c0,2.07,1.27,3.31,3.19,3.31c0.6,0,1.04-0.08,1.23-0.18v-2.28h-1.59v-1.31h3.23V122.48L546.65,122.48z"/>
		<path class="st0" d="M548.7,113.92c0.63-0.13,1.56-0.21,2.52-0.21c1.31,0,2.21,0.22,2.83,0.73c0.49,0.42,0.78,1.06,0.78,1.84
			c0,1.18-0.79,1.97-1.65,2.27v0.04c0.67,0.25,1.03,0.88,1.27,1.76c0.29,1.14,0.53,2.2,0.7,2.55h-1.69
			c-0.13-0.27-0.37-1.01-0.61-2.15c-0.27-1.19-0.69-1.57-1.64-1.59h-0.84v3.75h-1.65V113.92L548.7,113.92z M550.35,117.94h1.01
			c1.12,0,1.82-0.59,1.82-1.5c0-0.99-0.7-1.46-1.78-1.46c-0.54,0-0.86,0.04-1.04,0.09L550.35,117.94L550.35,117.94z"/>
		<path class="st0" d="M558.69,120.32l-0.79,2.58h-1.71l2.91-9.11h2.13l2.95,9.11h-1.79l-0.83-2.58H558.69z M561.28,119.06
			l-0.71-2.24c-0.19-0.55-0.32-1.18-0.46-1.71h-0.04c-0.14,0.53-0.28,1.16-0.43,1.71l-0.71,2.24H561.28z"/>
		<path class="st0" d="M565.81,113.91c0.75-0.11,1.66-0.19,2.65-0.19c1.72,0,2.85,0.35,3.71,1.05c0.9,0.72,1.43,1.81,1.43,3.36
			c0,1.63-0.56,2.84-1.42,3.63c-0.9,0.82-2.34,1.25-4.12,1.25c-0.97,0-1.69-0.06-2.25-0.13V113.91L565.81,113.91z M567.47,121.65
			c0.24,0.04,0.59,0.04,0.92,0.04c2.18,0.01,3.46-1.19,3.46-3.5c0.01-2.01-1.16-3.17-3.23-3.17c-0.55,0-0.9,0.05-1.16,0.1
			L567.47,121.65L567.47,121.65z"/>
		<path class="st0" d="M583.5,118.25c0,3.07-1.86,4.8-4.35,4.8c-2.6,0-4.22-1.97-4.22-4.63c0-2.82,1.77-4.79,4.34-4.79
			C581.92,113.62,583.5,115.63,583.5,118.25z M576.67,118.37c0,1.86,0.94,3.35,2.54,3.35c1.61,0,2.52-1.5,2.52-3.41
			c0-1.72-0.86-3.34-2.52-3.34C577.56,114.96,576.67,116.5,576.67,118.37z"/>
	</g>
	<g>
		<path class="st0" d="M210.37,95.73V76.39h-34.56v-9.38l31.16-47.45h17V65.5h9.85v10.89h-9.85v19.34H210.37z M210.37,65.5V44.75
			c0-4.33,0.24-8.67,0.48-13.24h-0.48c-2.33,4.81-4.31,8.67-6.66,12.9l-14.07,20.86v0.24L210.37,65.5L210.37,65.5z"/>
		<path class="st0" d="M182.54,118.71l-1.2,3.99h-2.66l4.52-14.1h3.28l4.58,14.1h-2.79l-1.26-3.99H182.54z M186.58,116.75l-1.1-3.47
			c-0.28-0.85-0.49-1.83-0.72-2.64h-0.04c-0.2,0.81-0.45,1.8-0.66,2.64l-1.1,3.47H186.58z"/>
		<path class="st0" d="M194.26,122.7v-14.1h2.95l3.66,6.05c0.92,1.56,1.75,3.2,2.41,4.73h0.03c-0.2-1.89-0.23-3.71-0.23-5.86v-4.92
			h2.39v14.1h-2.69l-3.67-6.22c-0.9-1.55-1.82-3.26-2.5-4.86l-0.08,0.02c0.09,1.82,0.13,3.69,0.13,6v5.05H194.26z M197.16,107.74
			c-0.05-1.55,0.56-2.43,1.53-2.43c0.52,0,0.88,0.2,1.3,0.43c0.35,0.21,0.66,0.39,0.96,0.39c0.34,0,0.5-0.16,0.56-0.85h1.26
			c0.01,1.61-0.52,2.34-1.56,2.34c-0.54,0-0.94-0.17-1.35-0.4c-0.38-0.21-0.62-0.4-0.91-0.4c-0.3,0-0.48,0.35-0.53,0.92
			L197.16,107.74L197.16,107.74z"/>
		<path class="st0" d="M222.19,115.51c0,4.72-2.87,7.42-6.74,7.42c-3.99,0-6.5-3.05-6.5-7.18c0-4.36,2.74-7.41,6.72-7.41
			C219.77,108.35,222.19,111.46,222.19,115.51z M211.66,115.68c0,2.89,1.45,5.17,3.92,5.17c2.5,0,3.91-2.32,3.91-5.26
			c0-2.66-1.32-5.18-3.91-5.18C213.04,110.41,211.66,112.78,211.66,115.68z"/>
		<path class="st0" d="M225.61,119.89c0.83,0.48,2.12,0.9,3.43,0.9c1.64,0,2.56-0.78,2.56-1.92c0-1.07-0.73-1.7-2.5-2.35
			c-2.33-0.84-3.83-2.07-3.83-4.09c0-2.33,1.93-4.06,5-4.06c1.52,0,2.65,0.33,3.37,0.71l-0.6,2.06c-0.53-0.27-1.5-0.66-2.83-0.66
			c-1.62,0-2.32,0.85-2.32,1.69c0,1.08,0.81,1.59,2.71,2.33c2.44,0.91,3.61,2.15,3.61,4.18c0,2.28-1.71,4.25-5.33,4.25
			c-1.49,0-3.04-0.42-3.83-0.9L225.61,119.89z"/>
	</g>
	<g>
		<path class="st0" d="M11.51,90.2c-0.21,0.11-0.46,0.22-0.75,0.32c-0.32,0.08-0.64,0.17-1.01,0.25c-0.35,0.08-0.77,0.11-1.15,0.11
			c-0.84,0-1.64-0.15-2.38-0.44c-0.74-0.27-1.34-0.72-1.88-1.32C3.81,88.56,3.42,87.84,3.11,87c-0.29-0.87-0.44-1.82-0.44-2.92
			c0-1.08,0.15-2.05,0.44-2.88c0.31-0.85,0.7-1.56,1.26-2.14c0.55-0.58,1.18-1.05,1.92-1.35c0.75-0.3,1.57-0.45,2.49-0.45
			c0.7,0,1.34,0.08,1.95,0.25c0.58,0.19,1.1,0.36,1.55,0.62c-0.09,0.17-0.14,0.41-0.2,0.74c-0.07,0.28-0.1,0.54-0.14,0.75
			l-0.11,0.03c-0.1-0.16-0.23-0.33-0.46-0.51c-0.15-0.19-0.41-0.38-0.65-0.58c-0.28-0.17-0.57-0.31-0.89-0.44
			c-0.31-0.13-0.69-0.17-1.05-0.17c-0.66,0-1.25,0.13-1.79,0.36c-0.55,0.24-1.04,0.63-1.44,1.13c-0.41,0.5-0.73,1.14-0.95,1.91
			c-0.23,0.77-0.35,1.68-0.35,2.73c0,1.07,0.12,1.98,0.35,2.75c0.23,0.78,0.54,1.43,0.95,1.92c0.4,0.5,0.88,0.86,1.44,1.13
			c0.53,0.23,1.13,0.35,1.79,0.35c0.37,0,0.75-0.04,1.07-0.18c0.33-0.09,0.63-0.23,0.92-0.4c0.27-0.17,0.53-0.34,0.72-0.53
			c0.25-0.16,0.43-0.34,0.59-0.49l0.06,0.08l-0.15,1.13C11.87,89.95,11.72,90.04,11.51,90.2"/>
		<path class="st0" d="M13.74,83.92c0.22-0.62,0.54-1.12,0.91-1.48c0.38-0.38,0.83-0.65,1.29-0.81c0.46-0.17,0.94-0.26,1.38-0.26
			c0.5,0,0.97,0.09,1.43,0.26c0.48,0.16,0.87,0.43,1.27,0.81c0.37,0.36,0.71,0.86,0.91,1.48c0.26,0.6,0.37,1.33,0.37,2.19
			c0,0.89-0.11,1.61-0.37,2.22c-0.21,0.6-0.55,1.09-0.91,1.46c-0.4,0.41-0.79,0.65-1.27,0.81c-0.46,0.15-0.93,0.23-1.43,0.23
			c-0.44,0-0.92-0.08-1.38-0.23c-0.46-0.16-0.91-0.4-1.29-0.81c-0.37-0.37-0.7-0.86-0.91-1.46c-0.24-0.6-0.34-1.33-0.34-2.22
			C13.4,85.26,13.5,84.52,13.74,83.92 M14.95,87.68c0.08,0.48,0.22,0.93,0.4,1.31c0.2,0.4,0.44,0.71,0.78,0.93
			c0.31,0.23,0.72,0.35,1.18,0.35c0.5,0,0.89-0.12,1.23-0.35c0.33-0.21,0.58-0.52,0.77-0.93c0.2-0.38,0.35-0.83,0.4-1.31
			c0.11-0.5,0.13-1.02,0.13-1.57c0-0.52-0.02-1.05-0.13-1.53c-0.06-0.5-0.2-0.92-0.4-1.34c-0.2-0.38-0.44-0.71-0.77-0.92
			c-0.33-0.23-0.73-0.35-1.23-0.35c-0.46,0-0.88,0.12-1.18,0.35c-0.34,0.22-0.58,0.54-0.78,0.92c-0.19,0.42-0.33,0.83-0.4,1.34
			c-0.12,0.48-0.14,1.01-0.14,1.53C14.81,86.66,14.84,87.19,14.95,87.68"/>
		<path class="st0" d="M23.1,83.3c0-0.62-0.06-1.21-0.11-1.72c0.31,0.05,0.53,0.07,0.72,0.07c0.09,0,0.2,0,0.27-0.02
			c0.14-0.02,0.24-0.05,0.38-0.05c-0.03,0.48-0.05,0.97-0.05,1.5h0.05c0.54-1.15,1.38-1.71,2.39-1.71c0.28,0,0.55,0.04,0.81,0.13
			c0.27,0.11,0.51,0.24,0.73,0.41c0.2,0.15,0.38,0.36,0.55,0.58c0.13,0.25,0.24,0.51,0.29,0.75h0.05c0.27-0.6,0.62-1.08,1.04-1.41
			c0.46-0.29,0.97-0.47,1.57-0.47c0.34,0,0.69,0.06,0.99,0.17c0.28,0.11,0.58,0.29,0.8,0.53c0.21,0.25,0.38,0.54,0.5,0.93
			c0.13,0.38,0.21,0.85,0.21,1.39c0,0.19,0,0.44-0.02,0.71c0,0.25-0.02,0.53-0.05,0.88c-0.01,0.33-0.01,0.73-0.02,1.16
			c-0.01,0.44-0.01,0.9-0.01,1.47c0,0.35,0,0.67,0,0.99c0.01,0.32,0.02,0.66,0.03,1.02c-0.09-0.01-0.22-0.02-0.35-0.02h-0.34h-0.34
			c-0.14,0-0.26,0.01-0.38,0.02c0.03-0.31,0.07-0.95,0.1-1.91c0.05-0.97,0.07-2.32,0.07-4.05c0-0.33-0.04-0.63-0.07-0.91
			c-0.07-0.28-0.2-0.52-0.33-0.74c-0.11-0.19-0.29-0.37-0.51-0.48c-0.21-0.13-0.49-0.19-0.82-0.19c-0.39,0-0.73,0.09-0.99,0.26
			c-0.27,0.18-0.48,0.39-0.66,0.63c-0.06,0.15-0.12,0.29-0.17,0.43c-0.06,0.14-0.11,0.35-0.12,0.63c-0.04,0.28-0.05,0.71-0.07,1.23
			c-0.02,0.49-0.02,1.21-0.02,2.12c0,0.55,0,1.06,0.04,1.48c0.01,0.46,0.05,0.96,0.06,1.49c-0.25-0.01-0.48-0.03-0.69-0.03
			c-0.25,0-0.47,0.01-0.72,0.03c0.05-0.69,0.08-1.41,0.1-2.13c0.02-0.72,0.02-1.44,0.02-2.12c0-0.62,0-1.1,0-1.42
			c-0.02-0.33-0.02-0.61-0.04-0.79c-0.03-0.19-0.05-0.37-0.1-0.48c-0.04-0.14-0.07-0.29-0.17-0.44c-0.09-0.24-0.28-0.45-0.55-0.63
			c-0.25-0.17-0.51-0.26-0.77-0.26c-0.7,0-1.24,0.28-1.57,0.82c-0.33,0.55-0.51,1.34-0.51,2.33v1.64c0,0.55,0,1.16,0.03,1.78
			c0.01,0.64,0.04,1.22,0.08,1.71c-0.24-0.01-0.47-0.02-0.72-0.02c-0.23,0-0.47,0.01-0.72,0.02c0.05-0.5,0.11-1.07,0.11-1.71
			c0.03-0.62,0.03-1.22,0.03-1.78v-2.01C23.13,84.54,23.13,83.96,23.1,83.3"/>
		<path class="st0" d="M37.07,77.54c0.16-0.18,0.35-0.28,0.58-0.28c0.23,0,0.43,0.09,0.59,0.28c0.19,0.19,0.23,0.42,0.23,0.69
			c0,0.27-0.05,0.5-0.23,0.68c-0.16,0.2-0.36,0.28-0.59,0.28c-0.22,0-0.41-0.08-0.58-0.28c-0.18-0.19-0.24-0.41-0.24-0.68
			C36.83,77.96,36.89,77.73,37.07,77.54 M37.03,83.3c-0.01-0.62-0.04-1.21-0.11-1.72c0.31,0.05,0.56,0.07,0.73,0.07
			c0.19,0,0.44-0.02,0.73-0.07c-0.05,0.51-0.1,1.1-0.1,1.72c-0.01,0.65-0.02,1.24-0.02,1.82v2.01c0,0.55,0.01,1.16,0.02,1.78
			c0,0.64,0.05,1.22,0.1,1.72c-0.25-0.01-0.48-0.03-0.73-0.03c-0.22,0-0.48,0.01-0.73,0.03c0.08-0.5,0.1-1.07,0.11-1.72
			c0.01-0.62,0.01-1.22,0.01-1.78v-2.01C37.04,84.54,37.04,83.96,37.03,83.3"/>
		<path class="st0" d="M41.32,89.28c0.12,0.15,0.24,0.28,0.39,0.43c0.16,0.14,0.35,0.24,0.56,0.31c0.18,0.1,0.4,0.15,0.62,0.15
			c0.21,0,0.41-0.05,0.59-0.14c0.22-0.04,0.38-0.16,0.53-0.28c0.15-0.16,0.25-0.34,0.34-0.54c0.11-0.22,0.13-0.48,0.13-0.76
			c0-0.39-0.08-0.71-0.27-0.89c-0.2-0.22-0.44-0.38-0.73-0.53c-0.26-0.14-0.58-0.25-0.92-0.33c-0.35-0.09-0.63-0.25-0.93-0.43
			c-0.27-0.2-0.52-0.43-0.7-0.75c-0.2-0.29-0.3-0.71-0.3-1.27c0-0.41,0.07-0.79,0.2-1.15c0.1-0.33,0.27-0.65,0.49-0.91
			c0.25-0.25,0.53-0.44,0.86-0.6c0.34-0.14,0.72-0.22,1.17-0.22c0.39,0,0.72,0.06,1,0.22c0.29,0.11,0.55,0.22,0.81,0.33
			c-0.1,0.18-0.19,0.41-0.27,0.69c-0.07,0.29-0.12,0.48-0.14,0.63h-0.19c-0.11-0.28-0.26-0.58-0.52-0.81
			c-0.22-0.25-0.53-0.35-0.92-0.35c-0.17,0-0.32,0.03-0.48,0.09c-0.17,0.07-0.33,0.16-0.45,0.29c-0.14,0.13-0.23,0.3-0.32,0.51
			c-0.09,0.19-0.11,0.44-0.11,0.72c0,0.41,0.09,0.73,0.28,0.95c0.15,0.23,0.41,0.39,0.71,0.52c0.26,0.11,0.59,0.23,0.91,0.34
			c0.35,0.08,0.64,0.21,0.93,0.4c0.29,0.17,0.51,0.41,0.71,0.72c0.2,0.29,0.31,0.73,0.31,1.24c0,0.39-0.09,0.74-0.22,1.11
			c-0.14,0.34-0.35,0.65-0.57,0.96c-0.26,0.29-0.58,0.49-0.93,0.65c-0.34,0.17-0.77,0.25-1.23,0.25c-0.48,0-0.9-0.05-1.24-0.16
			c-0.35-0.13-0.62-0.25-0.86-0.4c0.06-0.17,0.13-0.4,0.2-0.7c0.09-0.27,0.12-0.52,0.12-0.7h0.18C41.11,89,41.19,89.12,41.32,89.28"
			/>
		<path class="st0" d="M47.92,77.54c0.14-0.18,0.34-0.28,0.56-0.28c0.21,0,0.42,0.09,0.6,0.28c0.15,0.19,0.23,0.42,0.23,0.69
			c0,0.27-0.09,0.5-0.23,0.68c-0.18,0.2-0.39,0.28-0.6,0.28c-0.22,0-0.42-0.08-0.56-0.28c-0.19-0.19-0.26-0.41-0.26-0.68
			C47.66,77.96,47.74,77.73,47.92,77.54 M47.86,83.3c0-0.62-0.05-1.21-0.1-1.72c0.3,0.05,0.55,0.07,0.73,0.07
			c0.19,0,0.42-0.02,0.74-0.07c-0.06,0.51-0.1,1.1-0.1,1.72c-0.02,0.65-0.04,1.24-0.04,1.82v2.01c0,0.55,0.02,1.16,0.04,1.78
			c0,0.64,0.05,1.22,0.1,1.72c-0.24-0.01-0.51-0.03-0.74-0.03c-0.24,0-0.47,0.01-0.73,0.03c0.05-0.5,0.1-1.07,0.1-1.72
			c0.02-0.62,0.02-1.22,0.02-1.78v-2.01C47.88,84.54,47.88,83.96,47.86,83.3"/>
		<path class="st0" d="M51.67,83.92c0.22-0.62,0.54-1.12,0.92-1.48c0.37-0.38,0.82-0.65,1.28-0.81c0.48-0.17,0.95-0.26,1.4-0.26
			c0.48,0,0.94,0.09,1.41,0.26c0.5,0.16,0.91,0.43,1.29,0.81c0.37,0.36,0.69,0.86,0.91,1.48c0.25,0.6,0.36,1.33,0.36,2.19
			c0,0.89-0.11,1.61-0.36,2.22c-0.22,0.6-0.53,1.09-0.91,1.46c-0.37,0.41-0.79,0.65-1.29,0.81c-0.47,0.15-0.93,0.23-1.41,0.23
			c-0.44,0-0.91-0.08-1.4-0.23c-0.46-0.16-0.9-0.4-1.28-0.81c-0.38-0.37-0.69-0.86-0.92-1.46c-0.21-0.6-0.36-1.33-0.36-2.22
			C51.31,85.26,51.45,84.52,51.67,83.92 M52.87,87.68c0.09,0.48,0.22,0.93,0.41,1.31c0.2,0.4,0.48,0.71,0.79,0.93
			c0.32,0.23,0.72,0.35,1.18,0.35c0.48,0,0.88-0.12,1.2-0.35c0.32-0.21,0.59-0.52,0.78-0.93c0.2-0.38,0.34-0.83,0.42-1.31
			c0.09-0.5,0.1-1.02,0.1-1.57c0-0.52-0.02-1.05-0.1-1.53c-0.08-0.5-0.22-0.92-0.42-1.34c-0.19-0.38-0.46-0.71-0.78-0.92
			c-0.33-0.23-0.72-0.35-1.2-0.35c-0.47,0-0.86,0.12-1.18,0.35c-0.32,0.22-0.59,0.54-0.79,0.92c-0.19,0.42-0.32,0.83-0.41,1.34
			c-0.07,0.48-0.12,1.01-0.12,1.53C52.75,86.66,52.8,87.19,52.87,87.68 M57.29,76.58c0.08,0,0.23,0.08,0.34,0.18
			c0.12,0.09,0.19,0.25,0.19,0.45c0,0.21-0.07,0.42-0.2,0.55c-0.13,0.13-0.27,0.24-0.39,0.34l-2.38,1.8h-0.68l2.38-2.85
			C56.82,76.77,57.05,76.58,57.29,76.58"/>
		<path class="st0" d="M65.85,83.09c-0.31-0.49-0.75-0.74-1.29-0.74c-0.79,0-1.34,0.28-1.67,0.82c-0.36,0.55-0.52,1.34-0.52,2.32
			v1.65c0,0.55,0,1.16,0.01,1.77c0.02,0.64,0.06,1.22,0.11,1.72c-0.25-0.01-0.48-0.02-0.75-0.02c-0.22,0-0.45,0.01-0.7,0.02
			c0.04-0.5,0.08-1.07,0.08-1.72c0.02-0.62,0.04-1.22,0.04-1.77v-2.02c0-0.58-0.02-1.16-0.04-1.82c0-0.62-0.04-1.2-0.08-1.72
			c0.28,0.04,0.53,0.07,0.7,0.07c0.1,0,0.21,0,0.3-0.03c0.12-0.02,0.24-0.04,0.37-0.04c-0.02,0.48-0.04,0.97-0.04,1.5h0.01
			c0.33-0.55,0.67-0.98,1.1-1.28c0.42-0.31,0.93-0.44,1.52-0.44c0.31,0,0.61,0.05,0.9,0.14c0.34,0.12,0.6,0.29,0.86,0.53
			c0.25,0.26,0.44,0.57,0.6,1.04c0.17,0.42,0.22,0.95,0.22,1.62c0,0.56,0,1.09,0,1.71c-0.04,0.58-0.04,1.19-0.04,1.82v1.24
			c0,0.22,0,0.42,0,0.62c0,0.18,0,0.36,0.04,0.54c-0.22-0.01-0.46-0.03-0.71-0.03c-0.24,0-0.45,0.01-0.65,0.03
			c0.02-0.65,0.04-1.34,0.05-2.03c0.05-0.71,0.06-1.44,0.06-2.15v-1.18C66.33,84.31,66.15,83.58,65.85,83.09"/>
		<path class="st0" d="M80.1,85.66c-1.39-1.78-2.81-3.53-4.23-5.29c0,0.35-0.02,0.83-0.03,1.44c0,0.59,0,1.44,0,2.43
			c0,0.28,0,0.62,0,1.01c0,0.39,0,0.81,0,1.23c0.01,0.44,0.03,0.88,0.03,1.32c0.03,0.46,0.03,0.85,0.03,1.24
			c0.02,0.39,0.02,0.71,0.04,1c0.01,0.29,0.03,0.48,0.04,0.58c-0.16-0.01-0.37-0.03-0.55-0.03c-0.23,0-0.44,0.01-0.61,0.03
			c0.02-0.1,0.06-0.35,0.08-0.7c0.02-0.35,0.05-0.74,0.08-1.22c0.01-0.49,0.04-1.02,0.06-1.57c0.02-0.53,0.03-1.12,0.06-1.7
			c0.01-0.56,0.03-1.1,0.04-1.63c0-0.54,0-1.02,0-1.43c0-1.24,0-2.28,0-3.17c0-0.89-0.01-1.51-0.03-1.95h0.26
			c0.65,0.83,1.35,1.74,2.12,2.7c0.76,0.97,1.51,1.89,2.25,2.85c0.73,0.94,1.44,1.83,2.09,2.66c0.68,0.84,1.26,1.54,1.76,2.13v-2.62
			c0-1.3,0-2.62-0.02-3.88c-0.03-1.25-0.06-2.47-0.12-3.58c0.22,0.06,0.4,0.09,0.57,0.09c0.13,0,0.29-0.02,0.52-0.09
			c-0.01,0.28-0.04,0.71-0.07,1.26c-0.02,0.56-0.04,1.16-0.08,1.81c-0.05,0.63-0.05,1.24-0.08,1.86c-0.02,0.63-0.04,1.11-0.04,1.48
			v1.14c0,0.44,0.01,0.9,0.01,1.35c0.01,0.48,0.01,0.96,0.01,1.44c0,0.47,0.02,0.93,0.02,1.34c0,0.4,0.01,0.77,0.01,1.08v0.63h-0.22
			C82.85,89.2,81.49,87.44,80.1,85.66"/>
		<path class="st0" d="M88.72,81.61c0.39-0.17,0.81-0.24,1.24-0.24c0.42,0,0.75,0.06,1.1,0.22c0.3,0.11,0.59,0.31,0.82,0.55
			c0.23,0.25,0.41,0.56,0.54,0.91c0.15,0.34,0.22,0.72,0.22,1.16c0,0.73,0,1.44-0.04,2.18c-0.03,0.7-0.03,1.46-0.03,2.26
			c0,0.15,0,0.34,0,0.49c0.01,0.18,0.03,0.35,0.08,0.48c0.03,0.12,0.11,0.22,0.17,0.33c0.09,0.09,0.21,0.12,0.36,0.12
			c0.07,0,0.13,0,0.19,0c0.03,0,0.12-0.02,0.17-0.04v0.41c-0.13,0.06-0.26,0.11-0.44,0.17c-0.18,0.02-0.37,0.05-0.59,0.05
			c-0.35,0-0.62-0.1-0.78-0.33c-0.21-0.21-0.35-0.48-0.35-0.8c-0.41,0.46-0.79,0.78-1.15,1.01c-0.4,0.2-0.84,0.33-1.4,0.33
			c-0.27,0-0.53-0.05-0.8-0.14c-0.26-0.09-0.48-0.24-0.68-0.43c-0.21-0.21-0.36-0.47-0.49-0.74c-0.12-0.29-0.21-0.61-0.21-0.98
			c0-0.77,0.24-1.35,0.65-1.79c0.38-0.41,0.95-0.69,1.67-0.84c0.57-0.12,1.01-0.2,1.36-0.26c0.32-0.11,0.57-0.2,0.72-0.28
			c0.16-0.1,0.26-0.19,0.3-0.31c0.03-0.12,0.03-0.27,0.03-0.47c0-0.3-0.01-0.62-0.09-0.91c-0.06-0.31-0.18-0.56-0.31-0.77
			c-0.12-0.23-0.32-0.41-0.55-0.55c-0.23-0.12-0.51-0.19-0.82-0.19c-0.44,0-0.84,0.13-1.22,0.34c-0.37,0.25-0.65,0.57-0.84,0.97
			h-0.16v-1.01C87.85,82.04,88.3,81.75,88.72,81.61 M90.74,86.06c-0.27,0.04-0.49,0.11-0.75,0.18c-0.25,0.05-0.48,0.15-0.72,0.2
			c-0.26,0.1-0.46,0.23-0.65,0.36c-0.19,0.18-0.34,0.36-0.46,0.6C88.04,87.61,88,87.9,88,88.27c0,0.6,0.14,1.04,0.43,1.35
			c0.3,0.31,0.59,0.47,0.98,0.47c0.38,0,0.76-0.14,1.12-0.41c0.33-0.27,0.61-0.57,0.79-0.94l0.05-2.88
			C91.19,85.94,90.97,86.01,90.74,86.06"/>
		<path class="st0" d="M95.14,84c0.25-0.62,0.55-1.1,0.94-1.51c0.38-0.39,0.81-0.68,1.31-0.84c0.51-0.19,1.02-0.28,1.55-0.28
			c0.58,0,1.09,0.09,1.58,0.26c0.47,0.16,0.81,0.33,1,0.57c-0.08,0.19-0.13,0.4-0.19,0.61c-0.06,0.21-0.1,0.43-0.14,0.68h-0.15
			c-0.07-0.18-0.15-0.35-0.29-0.52c-0.13-0.17-0.29-0.35-0.47-0.49c-0.18-0.14-0.38-0.28-0.61-0.37c-0.2-0.08-0.44-0.14-0.71-0.14
			c-0.5,0-0.89,0.12-1.26,0.33c-0.34,0.19-0.64,0.49-0.85,0.85c-0.24,0.38-0.38,0.82-0.5,1.32c-0.11,0.49-0.18,1.04-0.18,1.62
			c0,1.32,0.24,2.33,0.75,2.98c0.45,0.69,1.16,1.02,2.07,1.02c0.22,0,0.45-0.04,0.66-0.11c0.25-0.07,0.46-0.17,0.67-0.3
			c0.21-0.12,0.42-0.26,0.62-0.41c0.19-0.18,0.34-0.36,0.48-0.55l0.08,0.06c-0.05,0.3-0.08,0.62-0.09,0.94
			c-0.34,0.3-0.7,0.55-1.22,0.78c-0.46,0.2-0.96,0.33-1.51,0.33c-0.42,0-0.9-0.08-1.38-0.25c-0.47-0.16-0.9-0.43-1.29-0.79
			c-0.37-0.38-0.68-0.88-0.91-1.47c-0.25-0.59-0.34-1.32-0.34-2.2C94.8,85.3,94.89,84.58,95.14,84"/>
		<path class="st0" d="M103.91,77.54c0.17-0.18,0.34-0.28,0.57-0.28c0.24,0,0.42,0.09,0.62,0.28c0.14,0.19,0.21,0.42,0.21,0.69
			c0,0.27-0.07,0.5-0.21,0.68c-0.2,0.2-0.37,0.28-0.62,0.28c-0.23,0-0.4-0.08-0.57-0.28c-0.19-0.19-0.24-0.41-0.24-0.68
			C103.67,77.96,103.73,77.73,103.91,77.54 M103.85,83.3c-0.01-0.62-0.05-1.21-0.1-1.72c0.32,0.05,0.53,0.07,0.72,0.07
			c0.19,0,0.44-0.02,0.75-0.07c-0.07,0.51-0.1,1.1-0.13,1.72c0,0.65,0,1.24,0,1.82v2.01c0,0.55,0,1.16,0,1.78
			c0.03,0.64,0.06,1.22,0.13,1.72c-0.23-0.01-0.5-0.03-0.75-0.03c-0.23,0-0.48,0.01-0.72,0.03c0.05-0.5,0.08-1.07,0.1-1.72
			c0.03-0.62,0.03-1.22,0.03-1.78v-2.01C103.89,84.54,103.88,83.96,103.85,83.3"/>
		<path class="st0" d="M107.66,83.92c0.23-0.62,0.53-1.12,0.91-1.48c0.4-0.38,0.82-0.65,1.31-0.81c0.45-0.17,0.91-0.26,1.38-0.26
			c0.48,0,0.97,0.09,1.42,0.26c0.47,0.16,0.89,0.43,1.26,0.81c0.38,0.36,0.68,0.86,0.93,1.48c0.24,0.6,0.35,1.33,0.35,2.19
			c0,0.89-0.11,1.61-0.35,2.22c-0.24,0.6-0.55,1.09-0.93,1.46c-0.37,0.41-0.79,0.65-1.26,0.81c-0.45,0.15-0.93,0.23-1.42,0.23
			c-0.47,0-0.93-0.08-1.38-0.23c-0.48-0.16-0.9-0.4-1.31-0.81c-0.39-0.37-0.68-0.86-0.91-1.46c-0.22-0.6-0.35-1.33-0.35-2.22
			C107.32,85.26,107.44,84.52,107.66,83.92 M108.88,87.68c0.08,0.48,0.22,0.93,0.43,1.31c0.18,0.4,0.42,0.71,0.74,0.93
			c0.35,0.23,0.75,0.35,1.22,0.35c0.48,0,0.87-0.12,1.2-0.35c0.32-0.21,0.58-0.52,0.81-0.93c0.17-0.38,0.31-0.83,0.39-1.31
			c0.09-0.5,0.1-1.02,0.1-1.57c0-0.52-0.02-1.05-0.1-1.53c-0.09-0.5-0.23-0.92-0.39-1.34c-0.23-0.38-0.48-0.71-0.81-0.92
			c-0.33-0.23-0.72-0.35-1.2-0.35c-0.47,0-0.88,0.12-1.22,0.35c-0.31,0.22-0.56,0.54-0.74,0.92c-0.21,0.42-0.34,0.83-0.43,1.34
			c-0.1,0.48-0.15,1.01-0.15,1.53C108.73,86.66,108.77,87.19,108.88,87.68"/>
		<path class="st0" d="M121.85,83.09c-0.32-0.49-0.77-0.74-1.3-0.74c-0.76,0-1.32,0.28-1.67,0.82c-0.35,0.55-0.54,1.34-0.54,2.32
			v1.65c0,0.55,0.01,1.16,0.03,1.77c0.03,0.64,0.07,1.22,0.13,1.72c-0.25-0.01-0.48-0.02-0.73-0.02c-0.24,0-0.5,0.01-0.74,0.02
			c0.06-0.5,0.1-1.07,0.1-1.72c0.01-0.62,0.03-1.22,0.03-1.77v-2.02c0-0.58-0.02-1.16-0.03-1.82c0-0.62-0.05-1.2-0.1-1.72
			c0.3,0.04,0.55,0.07,0.74,0.07c0.07,0,0.19,0,0.27-0.03c0.1-0.02,0.23-0.04,0.37-0.04c-0.05,0.48-0.07,0.97-0.07,1.5h0.06
			c0.27-0.55,0.64-0.98,1.06-1.28c0.45-0.31,0.95-0.44,1.53-0.44c0.32,0,0.63,0.05,0.91,0.14c0.33,0.12,0.61,0.29,0.88,0.53
			c0.25,0.26,0.44,0.57,0.61,1.04c0.14,0.42,0.21,0.95,0.21,1.62c0,0.56,0,1.09-0.01,1.71c-0.04,0.58-0.04,1.19-0.04,1.82v1.24
			c0,0.22,0,0.42,0,0.62c0,0.18,0.04,0.36,0.04,0.54c-0.23-0.01-0.46-0.03-0.71-0.03c-0.23,0-0.44,0.01-0.67,0.03
			c0.03-0.65,0.08-1.34,0.08-2.03c0.01-0.71,0.03-1.44,0.03-2.15v-1.18C122.31,84.31,122.15,83.58,121.85,83.09"/>
		<path class="st0" d="M127.54,81.61c0.41-0.17,0.83-0.24,1.26-0.24c0.41,0,0.77,0.06,1.09,0.22c0.33,0.11,0.6,0.31,0.83,0.55
			c0.22,0.25,0.41,0.56,0.54,0.91c0.14,0.34,0.22,0.72,0.22,1.16c0,0.73-0.02,1.44-0.05,2.18c-0.03,0.7-0.03,1.46-0.03,2.26
			c0,0.15,0,0.34,0,0.49c0,0.18,0.03,0.35,0.08,0.48c0.04,0.12,0.09,0.22,0.18,0.33c0.09,0.09,0.19,0.12,0.36,0.12
			c0.07,0,0.11,0,0.18,0c0.05,0,0.11-0.02,0.17-0.04v0.41c-0.14,0.06-0.27,0.11-0.44,0.17c-0.18,0.02-0.4,0.05-0.61,0.05
			c-0.35,0-0.62-0.1-0.8-0.33c-0.2-0.21-0.31-0.48-0.33-0.8c-0.41,0.46-0.79,0.78-1.15,1.01c-0.39,0.2-0.86,0.33-1.41,0.33
			c-0.27,0-0.54-0.05-0.79-0.14c-0.25-0.09-0.49-0.24-0.68-0.43c-0.21-0.21-0.35-0.47-0.47-0.74c-0.14-0.29-0.2-0.61-0.2-0.98
			c0-0.77,0.2-1.35,0.61-1.79c0.39-0.41,0.97-0.69,1.68-0.84c0.56-0.12,1.03-0.2,1.36-0.26c0.34-0.11,0.57-0.2,0.73-0.28
			c0.15-0.1,0.25-0.19,0.28-0.31c0.04-0.12,0.06-0.27,0.06-0.47c0-0.3-0.05-0.62-0.12-0.91c-0.06-0.31-0.15-0.56-0.3-0.77
			c-0.13-0.23-0.3-0.41-0.54-0.55c-0.23-0.12-0.52-0.19-0.85-0.19c-0.4,0-0.81,0.13-1.2,0.34c-0.35,0.25-0.63,0.57-0.83,0.97h-0.18
			v-1.01C126.69,82.04,127.15,81.75,127.54,81.61 M129.58,86.06c-0.25,0.04-0.49,0.11-0.71,0.18c-0.28,0.05-0.51,0.15-0.76,0.2
			c-0.25,0.1-0.46,0.23-0.66,0.36c-0.19,0.18-0.34,0.36-0.43,0.6c-0.13,0.22-0.19,0.5-0.19,0.88c0,0.6,0.15,1.04,0.43,1.35
			c0.31,0.31,0.62,0.47,0.97,0.47c0.42,0,0.8-0.14,1.11-0.41c0.37-0.27,0.62-0.57,0.8-0.94l0.08-2.88
			C130.03,85.94,129.8,86.01,129.58,86.06"/>
		<path class="st0" d="M134.59,80.29c0-0.51,0-0.97-0.03-1.49c0-0.51-0.02-0.98-0.03-1.43c-0.03-0.43-0.05-0.83-0.05-1.17
			c0.31,0.07,0.53,0.1,0.75,0.1c0.15,0,0.43-0.03,0.7-0.1c-0.02,0.34-0.03,0.73-0.05,1.17c-0.02,0.45-0.02,0.92-0.02,1.43
			c-0.02,0.52-0.02,0.99-0.02,1.49c0,0.53-0.02,1.01-0.02,1.44v3.45c0,0.46,0.02,0.91,0.02,1.43c0,0.53,0,1,0.02,1.51
			c0,0.5,0,0.96,0.02,1.4c0.01,0.46,0.03,0.82,0.05,1.11c-0.22-0.01-0.49-0.02-0.7-0.02c-0.26,0-0.5,0.01-0.75,0.02
			c0-0.29,0.02-0.65,0.05-1.11c0.01-0.44,0.03-0.9,0.03-1.4c0.03-0.51,0.03-0.98,0.03-1.51c0.01-0.52,0.01-0.97,0.01-1.43v-3.45
			C134.6,81.3,134.6,80.83,134.59,80.29"/>
		<path class="st0" d="M21.21,105.38c-0.1,0.22-0.22,0.44-0.36,0.68c-0.13,0.23-0.32,0.46-0.55,0.66c-0.21,0.19-0.47,0.37-0.78,0.49
			c-0.31,0.14-0.64,0.2-1.06,0.2c-0.42,0-0.83-0.09-1.22-0.24c-0.38-0.17-0.74-0.44-1.05-0.83c-0.32-0.36-0.56-0.85-0.75-1.44
			c-0.17-0.61-0.27-1.3-0.27-2.14c0-0.81,0.1-1.5,0.31-2.12c0.21-0.58,0.48-1.08,0.78-1.49c0.36-0.39,0.72-0.71,1.14-0.91
			c0.42-0.2,0.81-0.28,1.25-0.28c1.2,0,2.06,0.65,2.52,1.92h0.02v-1.87c0-0.5,0-0.97,0-1.47c0-0.48,0-0.96-0.02-1.41
			c0-0.45,0-0.85,0-1.27c0-0.39-0.03-0.72-0.06-1.03c0.14,0.01,0.27,0.04,0.39,0.06c0.11,0.02,0.24,0.04,0.35,0.04
			c0.1,0,0.24-0.03,0.33-0.04c0.14-0.02,0.26-0.04,0.39-0.06c-0.03,0.41-0.05,0.99-0.07,1.74c-0.05,0.76-0.05,1.62-0.06,2.57
			c-0.04,0.93-0.04,1.88-0.04,2.86c-0.03,0.98-0.03,1.86-0.03,2.69c0,0.89,0,1.66,0.03,2.37c0,0.71,0,1.43,0.01,2.16
			c-0.19-0.03-0.43-0.05-0.61-0.05c-0.21,0-0.42,0.02-0.63,0.05l0.05-1.83H21.21L21.21,105.38z M16.78,104.76
			c0.15,0.5,0.33,0.89,0.53,1.21c0.21,0.3,0.44,0.5,0.73,0.62c0.28,0.11,0.54,0.17,0.79,0.17c0.42,0,0.77-0.14,1.1-0.37
			c0.31-0.24,0.55-0.56,0.77-0.97c0.18-0.41,0.32-0.86,0.41-1.37c0.1-0.51,0.14-1.02,0.14-1.53c0-1.23-0.2-2.16-0.61-2.81
			c-0.4-0.64-0.98-0.95-1.74-0.95c-0.42,0-0.75,0.09-1.03,0.31c-0.29,0.23-0.53,0.5-0.72,0.88c-0.19,0.38-0.33,0.82-0.4,1.32
			c-0.1,0.52-0.16,1.03-0.16,1.62C16.59,103.64,16.67,104.25,16.78,104.76"/>
		<path class="st0" d="M25.04,99.28c0.62-0.89,1.56-1.34,2.78-1.34c0.56,0,1.07,0.11,1.46,0.31c0.44,0.21,0.76,0.5,1.08,0.85
			c0.27,0.34,0.48,0.76,0.59,1.23c0.15,0.47,0.21,1,0.21,1.51c0,0.12-0.02,0.25-0.02,0.37c0,0.12,0,0.25-0.02,0.39
			c-0.57-0.01-1.15-0.04-1.71-0.04c-0.58-0.02-1.17-0.02-1.76-0.02c-0.37,0-0.71,0-1.05,0.02c-0.35,0-0.74,0.04-1.06,0.04
			c-0.01,0.07-0.01,0.15-0.01,0.29v0.26c0,0.5,0.07,0.95,0.17,1.38c0.12,0.43,0.32,0.82,0.55,1.14c0.24,0.31,0.51,0.56,0.89,0.73
			c0.34,0.19,0.72,0.28,1.18,0.28c0.21,0,0.44-0.04,0.68-0.1c0.21-0.08,0.45-0.18,0.65-0.29c0.22-0.13,0.41-0.27,0.64-0.43
			c0.16-0.16,0.34-0.35,0.47-0.54l0.09,0.07l-0.09,0.92c-0.33,0.31-0.75,0.58-1.24,0.79c-0.47,0.22-0.98,0.33-1.49,0.33
			c-0.58,0-1.1-0.11-1.58-0.29c-0.47-0.24-0.9-0.52-1.25-0.95c-0.36-0.4-0.62-0.87-0.82-1.42c-0.2-0.55-0.27-1.11-0.27-1.77
			C24.1,101.39,24.39,100.16,25.04,99.28 M26.83,98.87c-0.29,0.21-0.53,0.48-0.69,0.8c-0.17,0.35-0.32,0.68-0.41,1.09
			c-0.08,0.38-0.13,0.75-0.15,1.08c0.32,0.03,0.67,0.04,1.03,0.04c0.36,0.01,0.73,0.01,1.07,0.01c0.34,0,0.72,0,1.07-0.01
			c0.37,0,0.75-0.01,1.07-0.04c0-0.33,0-0.7-0.08-1.08c-0.04-0.39-0.15-0.73-0.27-1.07c-0.15-0.33-0.36-0.6-0.62-0.82
			c-0.27-0.23-0.61-0.33-1.02-0.33C27.44,98.54,27.09,98.64,26.83,98.87"/>
		<path class="st0" d="M46.11,107.2c-0.15-0.03-0.28-0.05-0.41-0.05h-0.42h-0.45c-0.12,0-0.27,0.02-0.43,0.05
			c-0.09-0.29-0.18-0.64-0.31-1.06c-0.13-0.38-0.27-0.85-0.44-1.32c-0.14-0.43-0.3-0.89-0.48-1.35c-0.17-0.47-0.32-0.89-0.45-1.33
			c-0.34-0.01-0.68-0.02-1.09-0.02c-0.32-0.04-0.69-0.04-1.05-0.04c-0.34,0-0.66,0-0.98,0.04c-0.34,0-0.67,0.01-1,0.02
			c-0.33,1-0.65,1.94-0.95,2.84c-0.27,0.89-0.47,1.62-0.62,2.21c-0.18-0.03-0.4-0.05-0.61-0.05c-0.2,0-0.4,0.01-0.6,0.05
			c0.88-2.21,1.73-4.45,2.6-6.66c0.82-2.2,1.66-4.43,2.5-6.73h0.31c0.24,0.74,0.53,1.54,0.83,2.42c0.33,0.85,0.61,1.7,0.93,2.59
			c0.32,0.87,0.62,1.75,0.95,2.62c0.31,0.88,0.62,1.69,0.89,2.44c0.26,0.73,0.54,1.41,0.73,2C45.79,106.46,45.96,106.9,46.11,107.2
			 M38.94,101.26c0.28,0,0.56,0,0.87,0.02c0.28,0.02,0.59,0.04,0.87,0.04c0.3,0,0.61,0,0.91-0.02c0.32-0.02,0.59-0.02,0.91-0.04
			l-1.81-4.85L38.94,101.26z"/>
		<path class="st0" d="M47.42,100.54c0.24-0.58,0.58-1.1,0.95-1.48c0.38-0.39,0.83-0.68,1.32-0.86c0.5-0.18,1-0.27,1.51-0.27
			c0.62,0,1.14,0.09,1.61,0.25c0.48,0.17,0.81,0.37,1.02,0.58c-0.07,0.22-0.16,0.39-0.2,0.61c-0.06,0.21-0.1,0.43-0.13,0.66h-0.14
			c-0.08-0.16-0.19-0.35-0.32-0.51c-0.12-0.19-0.27-0.33-0.47-0.49c-0.17-0.15-0.36-0.26-0.57-0.37c-0.22-0.09-0.44-0.14-0.73-0.14
			c-0.49,0-0.9,0.11-1.23,0.33c-0.36,0.2-0.65,0.49-0.87,0.88c-0.21,0.36-0.4,0.8-0.49,1.31c-0.12,0.49-0.15,1.03-0.15,1.63
			c0,1.31,0.24,2.31,0.71,2.97c0.49,0.67,1.18,1,2.08,1c0.24,0,0.43-0.04,0.68-0.1c0.21-0.08,0.44-0.17,0.66-0.29
			c0.22-0.13,0.42-0.27,0.63-0.43c0.18-0.17,0.34-0.35,0.48-0.55l0.07,0.08c-0.05,0.31-0.08,0.61-0.08,0.92
			c-0.33,0.31-0.72,0.58-1.21,0.79c-0.5,0.22-0.99,0.33-1.53,0.33c-0.46,0-0.91-0.08-1.38-0.24c-0.47-0.16-0.92-0.44-1.3-0.81
			c-0.38-0.37-0.68-0.85-0.93-1.46c-0.21-0.61-0.32-1.31-0.32-2.21C47.09,101.88,47.2,101.14,47.42,100.54"/>
		<path class="st0" d="M59.17,99.48c-0.19-0.05-0.34-0.09-0.51-0.09c-0.25,0-0.48,0.06-0.68,0.2c-0.22,0.16-0.39,0.34-0.54,0.57
			c-0.13,0.23-0.23,0.54-0.3,0.84c-0.1,0.33-0.12,0.68-0.12,1.04v2.1c0,0.85,0,1.51,0,1.96c0,0.47,0.02,0.82,0.07,1.1
			c-0.21-0.03-0.42-0.04-0.64-0.04c-0.25,0-0.48,0.01-0.71,0.04c0.06-0.44,0.08-0.99,0.08-1.78c0-0.73,0.01-1.65,0.01-2.75v-0.6
			c0-0.49-0.01-1.05-0.01-1.72c0-0.67-0.02-1.37-0.08-2.24c0.12,0.03,0.26,0.05,0.35,0.07c0.11,0.02,0.22,0.02,0.36,0.02
			c0.09,0,0.2,0,0.29-0.02c0.14-0.02,0.21-0.04,0.35-0.07c-0.07,0.47-0.08,0.82-0.08,1.09c0,0.27-0.01,0.53-0.01,0.78h0.03
			c0.64-1.37,1.35-2.05,2.18-2.05c0.07,0,0.15,0,0.22,0c0.09,0.04,0.17,0.07,0.26,0.11c-0.03,0.16-0.08,0.37-0.09,0.72
			c0,0.28,0,0.56,0,0.82l-0.12,0.1C59.39,99.59,59.31,99.56,59.17,99.48"/>
		<path class="st0" d="M61.46,99.28c0.64-0.89,1.55-1.34,2.76-1.34c0.58,0,1.09,0.11,1.5,0.31c0.41,0.21,0.74,0.5,1.04,0.85
			c0.26,0.34,0.49,0.76,0.62,1.23c0.15,0.47,0.2,1,0.2,1.51c0,0.12,0,0.25,0,0.37c0,0.12,0,0.25-0.04,0.39
			c-0.57-0.01-1.15-0.04-1.72-0.04c-0.57-0.02-1.16-0.02-1.74-0.02c-0.35,0-0.7,0-1.05,0.02c-0.35,0-0.72,0.04-1.06,0.04
			c0,0.07-0.03,0.15-0.03,0.29v0.26c0,0.5,0.09,0.95,0.2,1.38c0.15,0.43,0.32,0.82,0.55,1.14c0.24,0.31,0.53,0.56,0.88,0.73
			c0.33,0.19,0.75,0.28,1.19,0.28c0.22,0,0.45-0.04,0.67-0.1c0.23-0.08,0.45-0.18,0.68-0.29c0.21-0.13,0.41-0.27,0.58-0.43
			c0.2-0.16,0.35-0.35,0.51-0.54l0.08,0.07l-0.08,0.92c-0.33,0.31-0.74,0.58-1.22,0.79c-0.48,0.22-0.96,0.33-1.49,0.33
			c-0.6,0-1.12-0.11-1.6-0.29c-0.48-0.24-0.89-0.52-1.26-0.95c-0.36-0.4-0.62-0.87-0.8-1.42c-0.2-0.55-0.28-1.11-0.28-1.77
			C60.52,101.39,60.82,100.16,61.46,99.28 M63.22,98.87c-0.26,0.21-0.5,0.48-0.67,0.8c-0.18,0.35-0.29,0.68-0.41,1.09
			c-0.1,0.38-0.14,0.75-0.18,1.08c0.33,0.03,0.71,0.04,1.05,0.04c0.34,0.01,0.71,0.01,1.04,0.01c0.39,0,0.73,0,1.12-0.01
			c0.36,0,0.72-0.01,1.07-0.04c0-0.33-0.02-0.7-0.06-1.08c-0.06-0.39-0.17-0.73-0.3-1.07c-0.14-0.33-0.34-0.6-0.61-0.82
			c-0.27-0.23-0.62-0.33-1.03-0.33C63.86,98.54,63.51,98.64,63.22,98.87"/>
		<path class="st0" d="M74.77,105.38c-0.08,0.22-0.19,0.44-0.32,0.68c-0.15,0.23-0.32,0.46-0.58,0.66c-0.2,0.19-0.45,0.37-0.77,0.49
			c-0.32,0.14-0.66,0.2-1.06,0.2c-0.41,0-0.82-0.09-1.22-0.24c-0.4-0.17-0.75-0.44-1.06-0.83c-0.31-0.36-0.56-0.85-0.75-1.44
			c-0.17-0.61-0.25-1.3-0.25-2.14c0-0.81,0.08-1.5,0.29-2.12c0.23-0.58,0.48-1.08,0.8-1.49c0.34-0.39,0.72-0.71,1.12-0.91
			c0.41-0.2,0.84-0.28,1.26-0.28c1.23,0,2.04,0.65,2.53,1.92h0.02v-1.87c0-0.5,0-0.97-0.02-1.47c0-0.48,0-0.96,0-1.41
			c0-0.45,0-0.85-0.01-1.27c-0.03-0.39-0.03-0.72-0.05-1.03c0.14,0.01,0.28,0.04,0.39,0.06c0.1,0.02,0.23,0.04,0.35,0.04
			c0.11,0,0.23-0.03,0.35-0.04c0.11-0.02,0.26-0.04,0.39-0.06c-0.04,0.41-0.06,0.99-0.09,1.74c-0.02,0.76-0.04,1.62-0.04,2.57
			c-0.04,0.93-0.04,1.88-0.07,2.86c-0.01,0.98-0.01,1.86-0.01,2.69c0,0.89,0,1.66,0.01,2.37c0.03,0.71,0.03,1.43,0.03,2.16
			c-0.2-0.03-0.42-0.05-0.62-0.05c-0.21,0-0.41,0.02-0.62,0.05l0.04-1.83H74.77L74.77,105.38z M70.36,104.76
			c0.14,0.5,0.33,0.89,0.52,1.21c0.21,0.3,0.45,0.5,0.74,0.62c0.25,0.11,0.52,0.17,0.79,0.17c0.4,0,0.78-0.14,1.08-0.37
			c0.3-0.24,0.58-0.56,0.77-0.97c0.18-0.41,0.34-0.86,0.42-1.37c0.08-0.51,0.14-1.02,0.14-1.53c0-1.23-0.2-2.16-0.59-2.81
			c-0.41-0.64-1.02-0.95-1.77-0.95c-0.38,0-0.74,0.09-1.03,0.31c-0.28,0.23-0.53,0.5-0.71,0.88c-0.19,0.38-0.33,0.82-0.43,1.32
			c-0.09,0.52-0.12,1.03-0.12,1.62C70.17,103.64,70.25,104.25,70.36,104.76"/>
		<path class="st0" d="M78.77,94.12c0.15-0.2,0.37-0.3,0.58-0.3c0.22,0,0.43,0.1,0.59,0.3c0.15,0.19,0.24,0.42,0.24,0.69
			c0,0.27-0.09,0.49-0.24,0.69c-0.16,0.19-0.37,0.28-0.59,0.28c-0.21,0-0.44-0.09-0.58-0.28c-0.17-0.2-0.26-0.42-0.26-0.69
			C78.51,94.54,78.6,94.31,78.77,94.12 M78.72,99.88c0-0.6-0.03-1.2-0.08-1.76c0.27,0.06,0.52,0.08,0.71,0.08
			c0.16,0,0.43-0.02,0.73-0.08c-0.05,0.55-0.09,1.16-0.11,1.76c-0.01,0.65-0.03,1.24-0.03,1.81v1.99c0,0.57,0.02,1.17,0.03,1.82
			c0.02,0.63,0.06,1.2,0.11,1.71c-0.25-0.03-0.49-0.05-0.73-0.05c-0.22,0-0.48,0.02-0.71,0.05c0.05-0.51,0.08-1.07,0.08-1.71
			c0.03-0.64,0.03-1.25,0.03-1.82v-1.99C78.75,101.11,78.75,100.53,78.72,99.88"/>
		<path class="st0" d="M84.32,95.56c-0.03,0.49-0.06,0.95-0.07,1.42c-0.02,0.48-0.04,0.94-0.07,1.42c0.14,0,0.34,0,0.68,0
			c0.31,0,0.66-0.03,1.05-0.05c-0.02,0.02-0.02,0.1-0.02,0.19v0.2v0.2c0,0.1,0,0.17,0.02,0.19c-0.13-0.01-0.29-0.01-0.44-0.02
			c-0.19,0-0.32,0-0.49,0h-0.8c-0.03,0.03-0.03,0.24-0.03,0.57c-0.03,0.37-0.03,0.79-0.05,1.3c0,0.5-0.01,0.99-0.03,1.53
			c0,0.55,0,1.02,0,1.44c0,0.36,0,0.7,0.03,1.05c0.02,0.35,0.05,0.66,0.14,0.95c0.07,0.25,0.23,0.49,0.4,0.63
			c0.16,0.17,0.42,0.26,0.75,0.26c0.1,0,0.19-0.03,0.32-0.04c0.17-0.04,0.28-0.07,0.38-0.1v0.44c-0.18,0.05-0.38,0.11-0.6,0.15
			c-0.24,0.07-0.42,0.09-0.63,0.09c-0.7,0-1.2-0.2-1.53-0.58c-0.32-0.4-0.48-0.98-0.48-1.75c0-0.34,0-0.71,0.01-1.11
			c0-0.4,0.04-0.84,0.04-1.32c0.03-0.48,0.04-1.02,0.04-1.58c0.02-0.59,0.02-1.24,0.02-1.94h-0.51c-0.1,0-0.18,0-0.28,0
			c-0.1,0.02-0.19,0.02-0.33,0.02c0.03-0.08,0.03-0.15,0.04-0.23c0-0.06,0-0.13,0-0.21c0-0.04,0-0.11,0-0.17
			c-0.02-0.07-0.02-0.13-0.04-0.19c0.51,0.03,0.86,0.03,1.09,0.03c0-0.24-0.03-0.54-0.03-0.95c0-0.37,0-0.76-0.04-1.17l1.34-0.68
			H84.32C84.32,95.56,84.32,95.56,84.32,95.56z"/>
		<path class="st0" d="M88.85,98.17c0.43-0.15,0.85-0.23,1.27-0.23c0.38,0,0.75,0.08,1.07,0.19c0.33,0.15,0.61,0.33,0.82,0.6
			c0.24,0.23,0.43,0.54,0.56,0.87c0.14,0.38,0.2,0.76,0.2,1.18c0,0.74-0.02,1.44-0.04,2.17c-0.01,0.71-0.01,1.47-0.01,2.27
			c0,0.16,0,0.33,0,0.49c0,0.17,0.01,0.33,0.06,0.45c0.07,0.16,0.13,0.26,0.19,0.33c0.1,0.11,0.21,0.14,0.37,0.14
			c0.07,0,0.11,0,0.17-0.01c0.07,0,0.13-0.02,0.16-0.04v0.41c-0.09,0.06-0.27,0.12-0.45,0.12c-0.16,0.06-0.37,0.08-0.58,0.08
			c-0.36,0-0.63-0.08-0.79-0.32c-0.2-0.2-0.3-0.48-0.35-0.8c-0.38,0.46-0.76,0.8-1.15,1.01c-0.39,0.23-0.84,0.33-1.39,0.33
			c-0.25,0-0.53-0.06-0.8-0.14c-0.25-0.11-0.49-0.24-0.7-0.44c-0.18-0.21-0.36-0.45-0.47-0.74c-0.12-0.27-0.18-0.6-0.18-0.98
			c0-0.76,0.19-1.35,0.59-1.78c0.41-0.4,0.96-0.7,1.67-0.82c0.62-0.13,1.04-0.22,1.37-0.3c0.34-0.11,0.57-0.15,0.73-0.26
			c0.17-0.09,0.26-0.2,0.28-0.32c0.05-0.11,0.06-0.27,0.06-0.46c0-0.32-0.04-0.61-0.1-0.9c-0.05-0.31-0.16-0.57-0.29-0.77
			c-0.17-0.23-0.34-0.41-0.57-0.53c-0.23-0.13-0.49-0.2-0.82-0.2c-0.42,0-0.82,0.09-1.21,0.35c-0.38,0.2-0.64,0.54-0.84,0.95h-0.2
			v-1C88.01,98.61,88.44,98.33,88.85,98.17 M90.89,102.64c-0.25,0.03-0.5,0.1-0.74,0.15c-0.25,0.07-0.48,0.14-0.73,0.23
			c-0.27,0.11-0.46,0.21-0.64,0.38c-0.2,0.15-0.35,0.33-0.48,0.56c-0.11,0.22-0.16,0.51-0.16,0.87c0,0.6,0.15,1.05,0.44,1.38
			c0.3,0.27,0.64,0.44,0.95,0.44c0.43,0,0.8-0.13,1.15-0.39c0.32-0.28,0.59-0.6,0.76-0.93l0.08-2.87
			C91.33,102.52,91.14,102.59,90.89,102.64"/>
		<path class="st0" d="M95.27,100.54c0.26-0.58,0.57-1.1,0.95-1.48c0.38-0.39,0.84-0.68,1.32-0.86c0.48-0.18,1.02-0.27,1.52-0.27
			c0.59,0,1.15,0.09,1.6,0.25c0.44,0.17,0.8,0.37,1.03,0.58c-0.1,0.22-0.18,0.39-0.23,0.61c-0.04,0.21-0.1,0.43-0.14,0.66h-0.13
			c-0.09-0.16-0.18-0.35-0.32-0.51c-0.12-0.19-0.29-0.33-0.46-0.49c-0.16-0.15-0.4-0.26-0.57-0.37c-0.26-0.09-0.48-0.14-0.75-0.14
			c-0.49,0-0.91,0.11-1.26,0.33c-0.35,0.2-0.62,0.49-0.85,0.88c-0.23,0.36-0.38,0.8-0.48,1.31c-0.13,0.49-0.17,1.03-0.17,1.63
			c0,1.31,0.25,2.31,0.7,2.97c0.49,0.67,1.19,1,2.12,1c0.22,0,0.42-0.04,0.69-0.1c0.2-0.08,0.42-0.17,0.62-0.29
			c0.26-0.13,0.44-0.27,0.62-0.43c0.2-0.17,0.35-0.35,0.5-0.55l0.1,0.08c-0.07,0.31-0.1,0.61-0.13,0.92
			c-0.3,0.31-0.72,0.58-1.21,0.79c-0.48,0.22-0.96,0.33-1.49,0.33c-0.47,0-0.93-0.08-1.41-0.24c-0.46-0.16-0.9-0.44-1.28-0.81
			c-0.37-0.37-0.68-0.85-0.92-1.46c-0.21-0.61-0.35-1.31-0.35-2.21C94.93,101.88,95.06,101.14,95.27,100.54"/>
		<path class="st0" d="M104.06,94.12c0.15-0.2,0.35-0.3,0.58-0.3c0.23,0,0.44,0.1,0.59,0.3c0.15,0.19,0.24,0.42,0.24,0.69
			c0,0.27-0.1,0.49-0.24,0.69c-0.15,0.19-0.36,0.28-0.59,0.28c-0.23,0-0.43-0.09-0.58-0.28c-0.17-0.2-0.26-0.42-0.26-0.69
			C103.8,94.54,103.89,94.31,104.06,94.12 M104,99.88c-0.01-0.6-0.05-1.2-0.08-1.76c0.3,0.06,0.52,0.08,0.73,0.08
			c0.19,0,0.44-0.02,0.73-0.08c-0.07,0.55-0.09,1.16-0.11,1.76c-0.01,0.65-0.02,1.24-0.02,1.81v1.99c0,0.57,0.02,1.17,0.02,1.82
			c0.02,0.63,0.05,1.2,0.11,1.71c-0.26-0.03-0.5-0.05-0.73-0.05c-0.23,0-0.48,0.02-0.73,0.05c0.03-0.51,0.07-1.07,0.08-1.71
			c0.03-0.64,0.04-1.25,0.04-1.82v-1.99C104.03,101.11,104.02,100.53,104,99.88"/>
		<path class="st0" d="M107.8,100.48c0.25-0.6,0.56-1.09,0.93-1.46c0.38-0.37,0.79-0.65,1.27-0.83c0.48-0.16,0.94-0.25,1.43-0.25
			c0.46,0,0.93,0.09,1.39,0.25c0.47,0.17,0.89,0.46,1.27,0.83c0.38,0.38,0.69,0.86,0.93,1.46c0.24,0.62,0.35,1.36,0.35,2.19
			c0,0.9-0.11,1.62-0.35,2.22c-0.23,0.61-0.55,1.1-0.93,1.48c-0.37,0.37-0.8,0.63-1.27,0.79c-0.46,0.15-0.94,0.24-1.39,0.24
			c-0.48,0-0.94-0.08-1.43-0.24c-0.48-0.15-0.89-0.41-1.27-0.79c-0.37-0.38-0.68-0.87-0.93-1.48c-0.21-0.6-0.33-1.32-0.33-2.22
			C107.47,101.84,107.59,101.1,107.8,100.48 M109.01,104.25c0.08,0.49,0.22,0.91,0.42,1.31c0.19,0.4,0.45,0.71,0.78,0.92
			c0.32,0.23,0.73,0.37,1.21,0.37c0.46,0,0.86-0.14,1.19-0.37c0.32-0.2,0.59-0.52,0.78-0.92c0.22-0.4,0.34-0.82,0.41-1.31
			c0.08-0.5,0.12-1.02,0.12-1.58c0-0.52-0.04-1.04-0.12-1.53c-0.08-0.5-0.19-0.94-0.41-1.33c-0.19-0.37-0.46-0.68-0.78-0.92
			c-0.32-0.21-0.73-0.35-1.19-0.35c-0.48,0-0.89,0.13-1.21,0.35c-0.33,0.24-0.58,0.55-0.78,0.92c-0.2,0.39-0.34,0.84-0.42,1.33
			c-0.08,0.49-0.12,1.01-0.12,1.53C108.89,103.23,108.93,103.75,109.01,104.25 M113.42,93.18c0.11,0,0.24,0.04,0.35,0.15
			c0.12,0.12,0.2,0.24,0.2,0.47c0,0.22-0.08,0.4-0.2,0.52c-0.14,0.18-0.27,0.26-0.39,0.37l-2.4,1.78h-0.67l2.38-2.84
			C112.95,93.33,113.21,93.18,113.42,93.18"/>
		<path class="st0" d="M122,99.67c-0.32-0.5-0.75-0.74-1.3-0.74c-0.76,0-1.33,0.27-1.67,0.82c-0.36,0.55-0.53,1.32-0.53,2.3v1.63
			c0,0.57,0,1.18,0.03,1.82c0,0.63,0.04,1.2,0.09,1.7c-0.25-0.03-0.49-0.04-0.73-0.04c-0.25,0-0.48,0.01-0.74,0.04
			c0.07-0.5,0.09-1.06,0.12-1.7c0.02-0.65,0.02-1.25,0.02-1.82v-2c0-0.57,0-1.15-0.02-1.8c-0.03-0.61-0.05-1.21-0.12-1.77
			c0.32,0.07,0.54,0.09,0.74,0.09c0.11,0,0.19,0,0.29-0.02c0.11-0.02,0.23-0.04,0.38-0.07c-0.04,0.53-0.06,1.02-0.06,1.52h0.03
			c0.32-0.53,0.66-0.96,1.08-1.25c0.43-0.29,0.94-0.45,1.53-0.45c0.29,0,0.61,0.05,0.91,0.16c0.31,0.09,0.59,0.26,0.84,0.51
			c0.24,0.25,0.46,0.6,0.62,1.02c0.17,0.41,0.23,0.96,0.23,1.63c0,0.58-0.01,1.1-0.03,1.69c0,0.59-0.03,1.19-0.03,1.85v1.23
			c0,0.21,0,0.42,0.03,0.61c0,0.2,0,0.37,0,0.55c-0.23-0.03-0.43-0.04-0.69-0.04c-0.22,0-0.45,0.01-0.66,0.04
			c0.01-0.65,0.02-1.33,0.07-2.04c0.03-0.72,0.03-1.42,0.03-2.16v-1.17C122.46,100.86,122.31,100.16,122,99.67"/>
		<path class="st1" d="M44.04,121.81c-0.18,0.06-0.4,0.15-0.66,0.23c-0.31,0.1-0.58,0.19-0.91,0.21c-0.31,0.06-0.66,0.11-1.02,0.11
			c-0.77,0-1.48-0.13-2.13-0.35c-0.64-0.22-1.2-0.59-1.67-1.05c-0.46-0.45-0.82-1.04-1.09-1.73c-0.29-0.66-0.41-1.44-0.41-2.33
			c0-0.85,0.12-1.61,0.41-2.28c0.27-0.7,0.62-1.25,1.09-1.73c0.47-0.48,1.05-0.82,1.73-1.08c0.68-0.24,1.4-0.36,2.22-0.36
			c0.62,0,1.23,0.07,1.75,0.21c0.52,0.13,1,0.31,1.39,0.49c-0.07,0.14-0.15,0.33-0.17,0.61c-0.05,0.23-0.11,0.44-0.11,0.58
			l-0.11,0.06c-0.09-0.13-0.22-0.28-0.41-0.43c-0.17-0.14-0.38-0.3-0.59-0.44c-0.28-0.14-0.51-0.26-0.79-0.36
			c-0.28-0.08-0.62-0.14-0.96-0.14c-0.58,0-1.09,0.1-1.59,0.31c-0.5,0.17-0.92,0.47-1.29,0.87c-0.38,0.41-0.64,0.93-0.87,1.54
			c-0.2,0.6-0.28,1.36-0.28,2.17c0,0.86,0.08,1.61,0.28,2.21c0.22,0.62,0.49,1.11,0.87,1.54c0.37,0.4,0.79,0.69,1.29,0.9
			c0.5,0.17,1.02,0.29,1.59,0.29c0.34,0,0.67-0.06,0.96-0.16c0.3-0.07,0.57-0.18,0.83-0.32c0.22-0.14,0.48-0.26,0.64-0.42
			c0.23-0.14,0.39-0.29,0.51-0.39l0.05,0.04l-0.13,0.91C44.4,121.61,44.25,121.69,44.04,121.81"/>
		<path class="st1" d="M51.26,118.19c-1.23-1.43-2.51-2.86-3.79-4.25c0,0.29-0.01,0.68-0.01,1.15c0,0.47,0,1.11,0,1.94
			c0,0.23,0,0.49,0,0.81c0,0.31,0.01,0.65,0.01,1c0,0.33,0.01,0.69,0.01,1.05c0.04,0.36,0.04,0.69,0.06,1
			c0.01,0.31,0.02,0.57,0.03,0.8c0,0.24,0.03,0.4,0.03,0.47c-0.18-0.02-0.34-0.02-0.51-0.02c-0.2,0-0.38,0-0.56,0.02
			c0.04-0.11,0.07-0.29,0.08-0.57c0.01-0.26,0.05-0.59,0.06-0.96c0.05-0.39,0.05-0.82,0.08-1.24c0.03-0.46,0.04-0.92,0.05-1.36
			c0.01-0.45,0.04-0.89,0.04-1.31c0-0.43,0.03-0.81,0.03-1.16c0-0.98,0-1.82-0.03-2.53c0-0.69,0-1.22-0.04-1.56h0.26
			c0.58,0.66,1.2,1.4,1.88,2.18c0.67,0.77,1.34,1.51,2.02,2.26c0.66,0.72,1.28,1.46,1.88,2.12c0.6,0.69,1.11,1.22,1.56,1.73v-2.09
			c0-1.06,0-2.13-0.01-3.11c-0.02-1.01-0.05-2-0.09-2.89c0.19,0.06,0.33,0.07,0.48,0.07c0.13,0,0.26-0.02,0.48-0.07
			c-0.04,0.23-0.05,0.55-0.09,0.99c-0.01,0.47-0.03,0.94-0.07,1.45c-0.02,0.5-0.04,1.02-0.06,1.51c0,0.5-0.03,0.88-0.03,1.19v0.9
			c0,0.35,0.03,0.72,0.03,1.06c0,0.39,0,0.78,0,1.17c0,0.37,0.01,0.74,0.01,1.07c0.01,0.34,0.01,0.63,0.01,0.87v0.52h-0.21
			C53.69,120.98,52.54,119.6,51.26,118.19"/>
		<path class="st1" d="M65.72,122.15c-0.16-0.02-0.28-0.02-0.39-0.02h-0.4h-0.38c-0.14,0-0.25,0-0.38,0.02
			c-0.07-0.23-0.15-0.51-0.27-0.83c-0.14-0.35-0.25-0.71-0.39-1.06c-0.14-0.34-0.29-0.73-0.43-1.1c-0.15-0.37-0.28-0.73-0.4-1.06
			c-0.3-0.02-0.64-0.03-0.95-0.03c-0.32,0-0.62,0-0.96,0c-0.3,0-0.59,0-0.89,0c-0.27,0-0.58,0.01-0.89,0.03
			c-0.31,0.79-0.58,1.55-0.84,2.27c-0.24,0.71-0.42,1.31-0.55,1.78c-0.19-0.02-0.36-0.02-0.55-0.02c-0.18,0-0.39,0-0.54,0.02
			c0.81-1.78,1.58-3.55,2.3-5.32c0.74-1.77,1.48-3.56,2.26-5.39h0.27c0.25,0.6,0.48,1.24,0.76,1.94c0.28,0.66,0.53,1.35,0.84,2.06
			c0.26,0.7,0.54,1.4,0.83,2.08c0.28,0.71,0.54,1.37,0.79,1.95c0.24,0.6,0.48,1.13,0.65,1.6C65.43,121.56,65.58,121.9,65.72,122.15
			 M59.27,117.39c0.26,0,0.53,0,0.79,0.02c0.27,0,0.54,0,0.78,0c0.27,0,0.56,0,0.82,0c0.26,0,0.53,0,0.83-0.02l-1.61-3.88
			L59.27,117.39z"/>
		<rect x="66.57" y="118.11" class="st1" width="3.61" height="0.95"/>
		<path class="st1" d="M79.33,121.81c-0.19,0.06-0.44,0.15-0.69,0.23c-0.29,0.1-0.58,0.19-0.89,0.21c-0.35,0.06-0.69,0.11-1.05,0.11
			c-0.76,0-1.47-0.13-2.1-0.35c-0.65-0.22-1.22-0.59-1.69-1.05c-0.47-0.45-0.83-1.04-1.11-1.73c-0.26-0.66-0.38-1.44-0.38-2.33
			c0-0.85,0.12-1.61,0.38-2.28c0.28-0.7,0.66-1.25,1.13-1.73c0.49-0.48,1.06-0.82,1.73-1.08c0.65-0.24,1.39-0.36,2.19-0.36
			c0.65,0,1.23,0.07,1.75,0.21c0.56,0.13,1,0.31,1.41,0.49c-0.07,0.14-0.14,0.33-0.18,0.61c-0.05,0.23-0.07,0.44-0.11,0.58
			l-0.08,0.06c-0.11-0.13-0.26-0.28-0.39-0.43c-0.21-0.14-0.39-0.3-0.64-0.44c-0.25-0.14-0.49-0.26-0.77-0.36
			c-0.3-0.08-0.62-0.14-0.97-0.14c-0.57,0-1.12,0.1-1.59,0.31c-0.5,0.17-0.91,0.47-1.27,0.87c-0.37,0.41-0.67,0.93-0.86,1.54
			c-0.2,0.6-0.31,1.36-0.31,2.17c0,0.86,0.11,1.61,0.31,2.21c0.19,0.62,0.49,1.11,0.86,1.54c0.36,0.4,0.77,0.69,1.27,0.9
			c0.48,0.17,1.02,0.29,1.59,0.29c0.35,0,0.67-0.06,0.97-0.16c0.31-0.07,0.56-0.18,0.82-0.32c0.24-0.14,0.46-0.26,0.65-0.42
			c0.21-0.14,0.37-0.29,0.5-0.39l0.05,0.04l-0.08,0.91C79.64,121.61,79.5,121.69,79.33,121.81"/>
		<path class="st1" d="M81.69,113.89c0-0.4,0-0.82-0.01-1.21c0-0.4,0-0.77-0.03-1.14c0-0.35-0.01-0.67-0.04-0.93
			c0.27,0.06,0.49,0.08,0.65,0.08c0.14,0,0.36-0.02,0.64-0.08c-0.01,0.26-0.03,0.58-0.04,0.91c0,0.37-0.03,0.72-0.03,1.13
			c-0.01,0.38-0.01,0.79-0.01,1.18c-0.03,0.39-0.03,0.77-0.03,1.1v1.17h0.04c0.26-0.43,0.6-0.79,0.98-1.03
			c0.36-0.24,0.81-0.37,1.35-0.37c0.28,0,0.53,0.08,0.82,0.13c0.26,0.1,0.54,0.23,0.77,0.42c0.22,0.2,0.38,0.48,0.54,0.82
			c0.14,0.34,0.2,0.76,0.2,1.3c0,0.44-0.01,0.88-0.02,1.36c-0.02,0.47-0.03,0.95-0.03,1.47v0.99c0,0.17,0,0.35,0.01,0.5
			c0.01,0.14,0.01,0.3,0.02,0.44c-0.21-0.02-0.41-0.02-0.6-0.02c-0.23,0-0.43,0-0.63,0.02c0-0.53,0.04-1.08,0.06-1.62
			c0.05-0.58,0.05-1.13,0.05-1.73v-0.93c0-0.78-0.17-1.34-0.42-1.74c-0.29-0.39-0.67-0.58-1.16-0.58c-0.7,0-1.18,0.21-1.5,0.65
			c-0.32,0.43-0.48,1.04-0.48,1.86c0,0.28,0,0.6,0.03,1c0,0.37,0,0.74,0.01,1.12c0,0.4,0.03,0.75,0.03,1.11
			c0.01,0.36,0.03,0.64,0.04,0.87c-0.2-0.02-0.45-0.02-0.64-0.02c-0.23,0-0.44,0-0.65,0.02c0.03-0.22,0.04-0.53,0.04-0.89
			c0.03-0.36,0.03-0.74,0.03-1.12c0.01-0.39,0.01-0.81,0.01-1.22c0.02-0.38,0.02-0.78,0.02-1.13V115
			C81.7,114.67,81.7,114.29,81.69,113.89"/>
		<path class="st1" d="M90.07,111.67c0.15-0.15,0.31-0.23,0.51-0.23c0.21,0,0.38,0.07,0.51,0.23c0.16,0.15,0.24,0.33,0.24,0.55
			c0,0.21-0.07,0.41-0.24,0.55c-0.13,0.15-0.3,0.23-0.51,0.23c-0.2,0-0.36-0.08-0.51-0.23c-0.15-0.14-0.22-0.34-0.22-0.55
			C89.85,112.01,89.93,111.83,90.07,111.67 M90.02,116.3c0-0.5-0.05-0.97-0.09-1.41c0.27,0.05,0.48,0.09,0.65,0.09
			c0.17,0,0.38-0.04,0.67-0.09c-0.05,0.44-0.08,0.91-0.1,1.41c0,0.5,0,0.97,0,1.44v1.58c0,0.47,0,0.95,0,1.46
			c0.02,0.49,0.05,0.97,0.1,1.36c-0.24-0.02-0.44-0.02-0.67-0.02c-0.2,0-0.42,0-0.65,0.02c0.04-0.4,0.09-0.87,0.09-1.36
			c0-0.52,0.03-1,0.03-1.46v-1.58C90.05,117.27,90.02,116.8,90.02,116.3"/>
		<path class="st1" d="M94.07,113.89c0-0.4,0-0.82-0.01-1.21c-0.02-0.4-0.02-0.77-0.04-1.14c-0.02-0.35-0.04-0.67-0.05-0.93
			c0.26,0.06,0.49,0.08,0.66,0.08c0.16,0,0.37-0.02,0.62-0.08c0,0.26-0.01,0.58-0.04,0.93c-0.01,0.37-0.02,0.74-0.02,1.14
			c-0.01,0.4-0.01,0.81-0.01,1.21c0,0.4-0.03,0.78-0.03,1.12v2.77c0,0.35,0.03,0.75,0.03,1.13c0,0.41,0,0.83,0.01,1.22
			c0,0.39,0.02,0.76,0.02,1.12c0.03,0.35,0.04,0.66,0.04,0.89c-0.2-0.02-0.41-0.02-0.62-0.02c-0.23,0-0.44,0-0.66,0.02
			c0.01-0.23,0.03-0.53,0.05-0.89c0.02-0.36,0.02-0.74,0.04-1.12c0.01-0.39,0.01-0.81,0.01-1.22c0.03-0.38,0.03-0.78,0.03-1.13
			v-2.77C94.1,114.67,94.1,114.29,94.07,113.89"/>
		<path class="st1" d="M97.99,115.79c0.59-0.71,1.42-1.08,2.48-1.08c0.53,0,0.97,0.1,1.35,0.26c0.36,0.17,0.66,0.4,0.93,0.66
			c0.26,0.28,0.45,0.62,0.58,1c0.1,0.38,0.15,0.77,0.15,1.22c0,0.08,0,0.19,0,0.28c-0.01,0.11-0.01,0.2-0.01,0.3
			c-0.53-0.01-1.05-0.01-1.57-0.01c-0.51-0.02-1-0.02-1.54-0.02c-0.31,0-0.63,0-0.94,0.02c-0.34,0-0.64,0-0.98,0.01
			c-0.01,0.07-0.01,0.13-0.01,0.26v0.17c0,0.41,0.04,0.79,0.17,1.12c0.12,0.37,0.27,0.64,0.48,0.89c0.23,0.26,0.47,0.47,0.81,0.59
			c0.28,0.17,0.65,0.24,1.08,0.24c0.17,0,0.38-0.03,0.58-0.1c0.21-0.05,0.4-0.11,0.59-0.24c0.21-0.09,0.38-0.19,0.56-0.32
			c0.18-0.14,0.32-0.29,0.45-0.46l0.07,0.06l-0.1,0.75c-0.27,0.27-0.66,0.46-1.09,0.63c-0.43,0.19-0.89,0.26-1.33,0.26
			c-0.53,0-1-0.08-1.44-0.26c-0.42-0.17-0.8-0.4-1.12-0.72c-0.31-0.34-0.56-0.71-0.73-1.14c-0.15-0.43-0.25-0.92-0.25-1.43
			C97.15,117.51,97.44,116.51,97.99,115.79 M99.61,115.47c-0.25,0.17-0.46,0.41-0.62,0.64c-0.17,0.27-0.27,0.55-0.36,0.89
			c-0.09,0.31-0.16,0.59-0.16,0.86c0.3,0,0.64,0.03,0.94,0.03c0.33,0,0.62,0.02,0.94,0.02c0.33,0,0.65-0.02,0.99-0.02
			c0.33,0,0.65-0.03,0.95-0.03c0-0.26-0.01-0.55-0.05-0.86c-0.06-0.31-0.14-0.61-0.27-0.85c-0.13-0.26-0.3-0.51-0.53-0.68
			c-0.24-0.15-0.55-0.26-0.95-0.26C100.14,115.21,99.87,115.32,99.61,115.47"/>
		<polygon class="st1" points="68.37,21.27 82.85,53.58 72.82,60.94 60.39,33.07 44.45,70.03 43.83,70.65 42.56,71.15 31.25,71.15 
			30.92,71 52.44,20.95 53.07,20.32 53.88,20.32 67.74,20.32 68.01,20.61 		"/>
		<polygon class="st2" points="72.87,61.2 60.08,71.47 77.06,71.46 		"/>
		<polygon class="st2" points="83.02,53.78 108.51,32.83 91.78,71.31 91.56,71.31 90.99,71.31 90.62,70.88 		"/>
	</g>
	<rect x="150.8" y="24.85" class="st0" width="2.13" height="95.08"/>
</g>
</svg>
